<svg width="600" height="76" viewBox="0 0 600 76" fill="none" xmlns="http://www.w3.org/2000/svg">
<path d="M317.1 0C307.3 0 293.8 1.59999 285.5 4.39999V73.1C292.4 74.5 305.2 75.3 314.2 75.3C344.8 75.3 356.6 64 356.6 37.1C356.7 13.9 341.6 0 317.1 0ZM302.7 14C305.5 13.5 310.9 12.7 316.3 12.7C328.7 12.7 338.5 19.3 338.5 37.1C338.5 54.4 333.7 62.5 314.8 62.5C308.7 62.5 302.7 61.7 302.7 61.7V14ZM542.6 72.7C542.6 72.7 553.2 75.3 568.1 75.3C582.2 75.3 599.9 70.8 599.9 52.8C599.9 41.1 590.7 36.1 575.7 30.9C567.6 28.1 560.7 25.6 560.7 20.3C560.7 17.8 562.7 12.9 573 12.9C582.6 12.9 592.5 17.1 592.5 17.1L596.8 5.10001C593.9 3.70001 584.5 0 571.4 0C557.2 0 543.4 7.09999 543.4 21.4C543.4 36.2 557.6 40.6 568.7 44.1C576.2 46.5 582.6 49 582.6 53.7C582.6 58.3 579.9 62.3 567.2 62.3C556.8 62.3 545.7 60.1 545.7 60.1L542.6 72.7ZM505.2 55.9C501.1 57.8 492.2 60.9 484.1 60.9C472.3 60.9 470.4 55.9 470.4 44.4V0.700012H467.9C464 0.700012 455.4 1.29999 453.3 1.79999V46.6C453.3 66.2 458.4 75.5 479.5 75.5C495.6 75.5 505 69.6 505.7 69.6C505.9 69.6 511.5 72.8 522.6 72.8V1.79999C521.4 1.59999 513.1 0.700012 508.9 0.700012H505.5V55.9H505.2ZM233.3 0C218 0 206 3.59999 201.4 5.79999L205.1 17.9C205.1 17.9 216.9 13.9 228.4 13.9C238.3 13.9 243.4 16.5 243.4 25.7V30.9H228.4C203 30.9 195.5 41.9 195.5 54C195.5 70.1 208.8 75.2 220.9 75.2C235 75.2 243.2 69.7 244.2 69.7C245 69.7 247.9 72.6 260.7 72.6V21.5C260.6 6.1 250.5 0 233.3 0ZM243.5 58.5C239.8 59.9 231 62.6 224.4 62.6C217.3 62.6 212 60.3 212 53C212 46.6 215.7 43 225.4 42.7L243.5 42.1V58.5ZM37.8 0C22.5 0 10.5 3.59999 5.9 5.79999L9.6 17.9C9.6 17.9 21.3 13.9 32.9 13.9C42.8 13.9 47.9 16.5 47.9 25.7V30.9H32.9C7.5 30.9 0 41.9 0 54C0 70.1 13.3 75.2 25.4 75.2C39.5 75.2 47.7 69.7 48.7 69.7C49.5 69.7 52.4 72.6 65.2 72.6V21.5C65.1 6.1 55 0 37.8 0ZM48 58.5C44.3 59.9 35.5 62.6 28.9 62.6C21.8 62.6 16.5 60.3 16.5 53C16.5 46.6 20.2 43 29.9 42.7L48 42.1V58.5ZM134 43.3C133.6 44.3 133 46.3 132.7 47.5C132.4 46.4 131.8 44.4 131.4 43.3L116.3 6.79999C113.8 0.699988 109.8 0 102.5 0C99.9 0 94.7 0.299988 94.7 0.299988L86.9 74.2H104.1L107.9 24.6L124.2 62.1C125.4 65 127.9 66.2 132.7 66.2C137.6 66.2 140 65 141.2 62.1L157.5 24.6L161.3 74.2H178.5L170.7 0.299988C170.7 0.299988 165.5 0 162.9 0C155.6 0 151.6 0.699988 149 6.79999L134 43.3ZM377.2 71.9C377.2 71.9 390.4 75.3 407.2 75.3C425.2 75.3 433.5 73.4 433.5 73.4V60.9C433.5 60.9 424.5 62.6 412 62.6C401 62.6 394.3 61.2 394.3 61.2V43.4H428.3V30.8H394.3V13.9C394.3 13.9 400.9 12.8 410.9 12.8C422.1 12.8 432.2 14.5 432.2 14.5V1.79999C432.2 1.79999 423.3 0 408.9 0C389.7 0 377.2 3.20001 377.2 3.20001V71.9Z" fill="#F5F5F5"/>
</svg>
