<svg width="60" height="40" viewBox="0 0 60 40" fill="none" xmlns="http://www.w3.org/2000/svg">
<path d="M26.5818 8.30755C27.7918 8.30755 28.8818 7.58755 29.3318 6.46755C29.7618 5.31755 29.4118 4.00755 28.4518 3.22755C27.4718 2.45755 26.1518 2.36755 25.0618 2.96755C24.4072 3.36054 23.9353 3.9972 23.7497 4.73777C23.5641 5.47834 23.68 6.2623 24.0718 6.91755C24.6018 7.79755 25.5418 8.32755 26.5618 8.32755L26.5818 8.30755ZM53.8218 8.30755C55.0318 8.30755 56.1218 7.58755 56.5918 6.46755C57.0218 5.31755 56.6718 4.00755 55.7118 3.22755C54.7318 2.45755 53.4118 2.36755 52.3218 2.96755C51.6672 3.36054 51.1953 3.9972 51.0097 4.73777C50.8241 5.47834 50.94 6.2623 51.3318 6.91755C51.8618 7.79755 52.8018 8.32755 53.8118 8.30755H53.8318H53.8218ZM4.51179 9.46755H2.40179C2.18179 9.46755 1.95179 9.51755 1.73179 9.56755C0.00179267 10.0776 -0.528207 12.2876 0.581793 13.6376C1.12179 14.3076 1.95179 14.4676 2.80179 14.4976H4.53179V23.6376C4.53179 25.0076 4.77179 26.3276 5.52179 27.5076C6.10038 28.4023 6.89212 29.1393 7.82591 29.6525C8.75971 30.1656 9.80633 30.4388 10.8718 30.4476C12.8218 30.4776 14.8018 30.2576 16.5918 29.4276C20.6318 27.5776 22.3818 22.9376 22.0218 18.6976C21.8318 16.4476 21.0418 14.1776 19.5718 12.4276C18.2373 10.8627 16.3777 9.83862 14.3418 9.54755C13.8118 9.46755 13.2918 9.43755 12.7618 9.43755H9.79179V3.71755C9.79179 2.85755 9.89179 1.94755 9.39179 1.17755C8.43179 -0.312449 6.13179 -0.402449 5.04179 0.987551C4.43179 1.76755 4.51179 2.69755 4.51179 3.62755V9.47755H4.49179L4.51179 9.46755ZM9.78179 14.5076H12.6618C16.1018 14.5076 17.0418 18.6276 16.6118 21.3976C16.5518 21.7976 16.4518 22.1976 16.3118 22.5776C16.5818 21.8376 16.1218 23.0876 16.3118 22.5776C16.023 23.3623 15.5154 24.0479 14.849 24.553C14.1826 25.0581 13.3854 25.3616 12.5518 25.4276C12.0718 25.4576 11.5718 25.4776 11.1018 25.4576C10.4118 25.4576 9.85179 24.9176 9.82179 24.2476V14.4976M37.0518 30.4876H39.8018C40.1718 30.4876 40.5418 30.4676 40.8718 30.4376C42.1082 30.3571 43.3124 30.0097 44.4017 29.4193C45.491 28.8289 46.4395 28.0095 47.1818 27.0176C48.8318 24.7976 49.4818 21.9076 49.2918 19.1676C49.1118 16.5576 48.1218 13.8976 46.2118 12.0676C44.1818 10.1376 41.3318 9.45755 38.6018 9.45755C37.4318 9.45755 36.3018 9.63755 35.2418 10.1776C34.0839 10.7691 33.1347 11.7008 32.5218 12.8476C32.0218 13.7776 31.7818 14.8176 31.7818 15.8676V25.4376H29.2118V12.5976C29.2118 11.4976 28.4918 10.5176 27.4518 10.1676C26.1418 9.73755 24.6018 10.3876 24.1318 11.6976C24.0018 12.1176 23.9418 12.5476 23.9718 12.9776V25.3976C23.9718 27.2676 24.4718 29.2976 26.3518 30.1176C27.1518 30.4676 28.0018 30.4976 28.8618 30.4976H31.7718V37.6076C31.8818 38.8076 32.8218 39.7775 34.0218 39.9375C35.1918 40.1175 36.3418 39.4875 36.8318 38.4175C37.0518 37.9075 37.0418 37.3776 37.0418 36.8376V30.4576L37.0518 30.4876ZM37.0518 16.3476C37.0518 15.7676 37.0018 15.1776 37.5018 14.7676C37.9218 14.4176 38.4418 14.4676 38.9518 14.4676C39.6418 14.4476 40.3218 14.5476 40.9818 14.7376C42.6318 15.3176 43.6018 16.8676 43.8718 18.5276C43.9318 18.9776 43.9818 19.4376 43.9718 19.8976C43.9718 21.5076 43.5718 23.2876 42.3918 24.4676C41.8918 24.9676 41.2618 25.2876 40.5718 25.3776C40.2218 25.4076 39.8718 25.4276 39.5218 25.4076H37.0718V16.3476H37.0518ZM51.2318 12.6976C51.2118 11.9576 51.5018 11.2576 52.0318 10.7476C53.0718 9.80755 54.6518 9.80755 55.6918 10.7476C56.5718 11.5776 56.4718 12.6976 56.4718 13.7876V25.4376C57.0118 25.4376 57.6218 25.4076 58.1518 25.5776C58.8118 25.8176 59.3318 26.3176 59.6018 26.9476C60.1818 28.3176 59.0218 29.9976 57.9518 30.3376C57.7118 30.4176 57.4518 30.4676 57.2118 30.4776C56.4718 30.4776 55.8018 30.5076 55.1218 30.4776C53.8618 30.3976 52.6918 29.8176 52.0018 28.7476C51.2518 27.5676 51.2318 26.1776 51.2318 24.8176V12.6976Z" fill="#F5F5F5"/>
<path d="M36.9417 25.1476H31.9117L31.7817 25.4276V30.4876L31.9517 30.8776H36.9617L37.0517 30.4876V25.4276L36.9417 25.1476ZM9.67172 9.30756H4.62172L4.51172 9.46756V14.5076L4.65172 14.9076H9.66172L9.78172 14.5076V9.46756L9.67172 9.30756Z" fill="#F5F5F5"/>
</svg>
