<svg width="473" height="156" viewBox="0 0 473 156" fill="none" xmlns="http://www.w3.org/2000/svg">
<path d="M0 155.656H63.9958C84.4336 155.656 96.8199 152.147 105.904 144.509C115.399 136.87 119.941 124.896 119.941 110.239C119.941 100.537 117.258 92.2792 113.542 86.9122C109.825 81.9573 105.904 78.4476 101.362 75.145C103.632 71.4283 106.729 66.4744 109.619 61.5195C113.955 53.675 116.639 46.8628 116.639 37.16C116.639 24.5666 111.065 13.6256 101.775 7.22535C93.5173 1.65247 83.1954 0 67.2995 0H0V155.656ZM24.9786 132.123V88.3564H65.8542C75.3499 88.3564 81.1311 89.1826 85.8789 92.0732C92.072 96.4079 94.5495 102.188 94.5495 110.239C94.5495 117.465 92.6911 122.832 88.1492 126.549C83.6074 130.47 77.0023 132.123 64.4089 132.123H24.9786ZM24.9786 64.8232V23.5344H65.0279C74.1117 23.5344 80.5108 23.9475 84.6396 26.425C89.3885 29.1085 91.2458 33.4432 91.2458 39.6375C91.2458 45.6235 89.1815 50.1654 86.292 55.3263C84.4336 58.4229 82.3692 61.9325 80.5108 64.8232H24.9786Z" fill="#F5F5F5"/>
<path d="M162.262 155.656V37.366L198.802 124.69H221.716L258.256 37.366V155.656H282.822V0H249.792L210.569 93.9304L171.139 0H137.696V155.656H162.262Z" fill="#F5F5F5"/>
<path d="M357.76 155.656L383.565 58.4229L409.37 155.656H442.194L472.748 0H447.562L423.614 123.245L396.983 23.5344H370.354L343.723 123.245L319.775 0H294.176L324.73 155.656H357.76Z" fill="#F5F5F5"/>
</svg>
