<svg width="204" height="93" viewBox="0 0 204 93" fill="none" xmlns="http://www.w3.org/2000/svg">
<mask id="path-1-inside-1_2_39" fill="white">
<path d="M199.901 36.725C200.424 36.725 200.812 36.773 201.063 36.882C201.503 37.064 201.716 37.427 201.716 37.954C201.716 38.335 201.58 38.618 201.302 38.794C201.153 38.891 200.949 38.958 200.68 39.002C201.017 39.056 201.268 39.196 201.419 39.421C201.571 39.643 201.645 39.862 201.645 40.076V40.392L201.658 40.706L201.702 40.928L201.725 40.983H201.017L201.013 40.939L201 40.89L200.981 40.754V40.414C200.981 39.922 200.848 39.598 200.581 39.442C200.424 39.348 200.149 39.304 199.745 39.304H199.157V40.982H198.403V36.723M200.705 37.398C200.523 37.293 200.213 37.241 199.794 37.241H199.157V38.778H199.836C200.156 38.778 200.396 38.747 200.548 38.686C200.842 38.569 200.983 38.342 200.983 38.022C200.982 37.705 200.891 37.502 200.705 37.398ZM202.722 41.616C201.966 42.372 201.044 42.762 199.965 42.762C198.897 42.762 197.975 42.372 197.232 41.616C196.471 40.855 196.096 39.94 196.096 38.861C196.096 37.798 196.484 36.885 197.236 36.128C197.99 35.376 198.906 34.999 199.965 34.999C201.044 34.999 201.966 35.376 202.722 36.128C203.478 36.884 203.855 37.797 203.86 38.861C203.86 39.941 203.478 40.854 202.722 41.616ZM197.609 36.503C196.962 37.156 196.639 37.943 196.639 38.861C196.639 39.796 196.959 40.585 197.605 41.238C198.256 41.898 199.043 42.223 199.965 42.223C200.903 42.223 201.685 41.898 202.336 41.238C202.983 40.585 203.306 39.796 203.306 38.861C203.306 37.943 202.984 37.156 202.336 36.503C201.679 35.851 200.896 35.521 199.965 35.521C199.048 35.521 198.269 35.851 197.609 36.503Z"/>
</mask>
<path d="M199.901 36.725C200.424 36.725 200.812 36.773 201.063 36.882C201.503 37.064 201.716 37.427 201.716 37.954C201.716 38.335 201.58 38.618 201.302 38.794C201.153 38.891 200.949 38.958 200.68 39.002C201.017 39.056 201.268 39.196 201.419 39.421C201.571 39.643 201.645 39.862 201.645 40.076V40.392L201.658 40.706L201.702 40.928L201.725 40.983H201.017L201.013 40.939L201 40.89L200.981 40.754V40.414C200.981 39.922 200.848 39.598 200.581 39.442C200.424 39.348 200.149 39.304 199.745 39.304H199.157V40.982H198.403V36.723M200.705 37.398C200.523 37.293 200.213 37.241 199.794 37.241H199.157V38.778H199.836C200.156 38.778 200.396 38.747 200.548 38.686C200.842 38.569 200.983 38.342 200.983 38.022C200.982 37.705 200.891 37.502 200.705 37.398ZM202.722 41.616C201.966 42.372 201.044 42.762 199.965 42.762C198.897 42.762 197.975 42.372 197.232 41.616C196.471 40.855 196.096 39.94 196.096 38.861C196.096 37.798 196.484 36.885 197.236 36.128C197.99 35.376 198.906 34.999 199.965 34.999C201.044 34.999 201.966 35.376 202.722 36.128C203.478 36.884 203.855 37.797 203.86 38.861C203.86 39.941 203.478 40.854 202.722 41.616ZM197.609 36.503C196.962 37.156 196.639 37.943 196.639 38.861C196.639 39.796 196.959 40.585 197.605 41.238C198.256 41.898 199.043 42.223 199.965 42.223C200.903 42.223 201.685 41.898 202.336 41.238C202.983 40.585 203.306 39.796 203.306 38.861C203.306 37.943 202.984 37.156 202.336 36.503C201.679 35.851 200.896 35.521 199.965 35.521C199.048 35.521 198.269 35.851 197.609 36.503Z" fill="#F5F5F5"/>
<path d="M201.063 36.882L200.665 37.7993L200.673 37.8027L200.681 37.8061L201.063 36.882ZM201.302 38.794L200.767 37.949L200.756 37.956L201.302 38.794ZM200.68 39.002L200.519 38.0151L200.522 39.9894L200.68 39.002ZM201.419 39.421L200.589 39.9783L200.594 39.986L201.419 39.421ZM201.645 40.392H200.645V40.4127L200.646 40.4334L201.645 40.392ZM201.658 40.706L200.659 40.7474L200.662 40.8246L200.677 40.9005L201.658 40.706ZM201.702 40.928L200.721 41.1225L200.741 41.221L200.779 41.3138L201.702 40.928ZM201.725 40.983V41.983H203.227L202.648 40.5973L201.725 40.983ZM201.017 40.983L200.021 41.0735L200.104 41.983H201.017V40.983ZM201.013 40.939L202.009 40.8485L202.001 40.7643L201.98 40.6826L201.013 40.939ZM201 40.89L200.01 41.0285L200.018 41.0882L200.033 41.1465L201 40.89ZM200.981 40.754H199.981V40.8236L199.991 40.8925L200.981 40.754ZM200.581 39.442L200.067 40.3L200.076 40.3054L200.581 39.442ZM199.157 39.304V38.304H198.157V39.304H199.157ZM199.157 40.982V41.982H200.157V40.982H199.157ZM198.403 40.982H197.403V41.982H198.403V40.982ZM200.705 37.398L200.205 38.2643L200.217 38.2708L200.705 37.398ZM199.157 37.241V36.241H198.157V37.241H199.157ZM199.157 38.778H198.157V39.778H199.157V38.778ZM200.548 38.686L200.178 37.7569L200.175 37.758L200.548 38.686ZM200.983 38.022H201.983L201.983 38.0189L200.983 38.022ZM202.722 41.616L203.429 42.3231L203.432 42.3203L202.722 41.616ZM197.232 41.616L197.945 40.915L197.939 40.9089L197.232 41.616ZM197.236 36.128L196.53 35.42L196.527 35.4233L197.236 36.128ZM202.722 36.128L203.429 35.4209L203.427 35.419L202.722 36.128ZM203.86 38.861H204.86L204.86 38.8563L203.86 38.861ZM197.609 36.503L196.906 35.7916L196.899 35.7992L197.609 36.503ZM197.605 41.238L198.317 40.5358L198.316 40.5347L197.605 41.238ZM202.336 41.238L201.626 40.5342L201.624 40.5358L202.336 41.238ZM202.336 36.503L203.046 35.7986L203.04 35.7932L202.336 36.503ZM199.901 36.725V37.725C200.404 37.725 200.615 37.7776 200.665 37.7993L201.063 36.882L201.461 35.9648C201.009 35.7685 200.444 35.725 199.901 35.725V36.725ZM201.063 36.882L200.681 37.8061C200.708 37.8174 200.715 37.8246 200.712 37.822C200.708 37.8187 200.702 37.8121 200.698 37.8053C200.689 37.7908 200.716 37.8224 200.716 37.954H201.716H202.716C202.716 37.5586 202.636 37.1453 202.411 36.772C202.179 36.3889 201.839 36.1208 201.445 35.958L201.063 36.882ZM201.716 37.954H200.716C200.716 38.027 200.703 38.0359 200.715 38.0111C200.721 37.9988 200.73 37.9843 200.743 37.9708C200.755 37.9574 200.765 37.9507 200.767 37.9491L201.302 38.794L201.837 39.6389C202.463 39.2424 202.716 38.6019 202.716 37.954H201.716ZM201.302 38.794L200.756 37.956C200.768 37.9484 200.761 37.9556 200.72 37.9691C200.679 37.9827 200.615 37.9994 200.519 38.0151L200.68 39.002L200.841 39.9889C201.175 39.9343 201.533 39.8365 201.848 39.6321L201.302 38.794ZM200.68 39.002L200.522 39.9894C200.597 40.0015 200.626 40.0175 200.628 40.0182C200.628 40.0183 200.622 40.0151 200.613 40.0072C200.605 39.9993 200.596 39.9893 200.589 39.9783L201.419 39.421L202.249 38.8638C201.902 38.3459 201.365 38.099 200.838 38.0146L200.68 39.002ZM201.419 39.421L200.594 39.986C200.626 40.0332 200.639 40.0634 200.643 40.0762C200.647 40.0876 200.645 40.0864 200.645 40.076H201.645H202.645C202.645 39.62 202.485 39.2077 202.244 38.8561L201.419 39.421ZM201.645 40.076H200.645V40.392H201.645H202.645V40.076H201.645ZM201.645 40.392L200.646 40.4334L200.659 40.7474L201.658 40.706L202.657 40.6647L202.644 40.3507L201.645 40.392ZM201.658 40.706L200.677 40.9005L200.721 41.1225L201.702 40.928L202.683 40.7336L202.639 40.5116L201.658 40.706ZM201.702 40.928L200.779 41.3138L200.802 41.3688L201.725 40.983L202.648 40.5973L202.625 40.5423L201.702 40.928ZM201.725 40.983V39.983H201.017V40.983V41.983H201.725V40.983ZM201.017 40.983L202.013 40.8925L202.009 40.8485L201.013 40.939L200.017 41.0295L200.021 41.0735L201.017 40.983ZM201.013 40.939L201.98 40.6826L201.967 40.6336L201 40.89L200.033 41.1465L200.046 41.1955L201.013 40.939ZM201 40.89L201.99 40.7516L201.971 40.6156L200.981 40.754L199.991 40.8925L200.01 41.0285L201 40.89ZM200.981 40.754H201.981V40.414H200.981H199.981V40.754H200.981ZM200.981 40.414H201.981C201.981 39.7901 201.813 39.0035 201.085 38.5786L200.581 39.442L200.076 40.3054C200.042 40.2853 200.011 40.2589 199.988 40.2308C199.965 40.2038 199.957 40.1842 199.956 40.1824C199.956 40.1815 199.963 40.1976 199.969 40.2375C199.976 40.2774 199.981 40.3351 199.981 40.414H200.981ZM200.581 39.442L201.095 38.584C200.68 38.3358 200.153 38.304 199.745 38.304V39.304V40.304C199.916 40.304 200.027 40.3137 200.094 40.3246C200.126 40.3299 200.138 40.3339 200.136 40.3332C200.134 40.3326 200.107 40.3241 200.067 40.3L200.581 39.442ZM199.745 39.304V38.304H199.157V39.304V40.304H199.745V39.304ZM199.157 39.304H198.157V40.982H199.157H200.157V39.304H199.157ZM199.157 40.982V39.982H198.403V40.982V41.982H199.157V40.982ZM198.403 40.982H199.403V36.723H198.403H197.403V40.982H198.403ZM200.705 37.398L201.205 36.5318C200.78 36.2866 200.24 36.241 199.794 36.241V37.241V38.241C199.966 38.241 200.089 38.252 200.17 38.2658C200.258 38.281 200.255 38.2926 200.205 38.2642L200.705 37.398ZM199.794 37.241V36.241H199.157V37.241V38.241H199.794V37.241ZM199.157 37.241H198.157V38.778H199.157H200.157V37.241H199.157ZM199.157 38.778V39.778H199.836V38.778V37.778H199.157V38.778ZM199.836 38.778V39.778C200.185 39.778 200.584 39.749 200.92 39.6141L200.548 38.686L200.175 37.758C200.205 37.746 200.197 37.754 200.127 37.7631C200.061 37.7716 199.966 37.778 199.836 37.778V38.778ZM200.548 38.686L200.918 39.6152C201.226 39.4924 201.514 39.2854 201.715 38.9731C201.914 38.6655 201.983 38.3291 201.983 38.022H200.983H199.983C199.983 38.035 199.981 37.972 200.036 37.8872C200.094 37.7977 200.164 37.7626 200.178 37.7569L200.548 38.686ZM200.983 38.022L201.983 38.0189C201.981 37.5307 201.831 36.8818 201.193 36.5252L200.705 37.398L200.217 38.2708C200.171 38.2451 200.124 38.2092 200.083 38.1633C200.042 38.1179 200.016 38.073 200 38.0376C199.971 37.973 199.983 37.9532 199.983 38.0252L200.983 38.022ZM202.722 41.616L202.015 40.9089C201.444 41.4803 200.775 41.762 199.965 41.762V42.762V43.762C201.313 43.762 202.488 43.2638 203.429 42.3231L202.722 41.616ZM199.965 42.762V41.762C199.166 41.762 198.501 41.4806 197.945 40.9151L197.232 41.616L196.519 42.317C197.449 43.2634 198.628 43.762 199.965 43.762V42.762ZM197.232 41.616L197.939 40.9089C197.368 40.3376 197.096 39.6779 197.096 38.861H196.096H195.096C195.096 40.2022 195.574 41.3724 196.525 42.3231L197.232 41.616ZM196.096 38.861H197.096C197.096 38.0704 197.374 37.4084 197.945 36.8328L197.236 36.128L196.527 35.4233C195.594 36.3616 195.096 37.5256 195.096 38.861H196.096ZM197.236 36.128L197.942 36.8361C198.508 36.2713 199.17 35.999 199.965 35.999V34.999V33.999C198.642 33.999 197.471 34.4808 196.53 35.42L197.236 36.128ZM199.965 34.999V35.999C200.784 35.999 201.451 36.2743 202.017 36.837L202.722 36.128L203.427 35.419C202.481 34.4778 201.304 33.999 199.965 33.999V34.999ZM202.722 36.128L202.015 36.8351C202.583 37.4035 202.856 38.0635 202.86 38.8657L203.86 38.861L204.86 38.8563C204.854 37.5305 204.373 36.3646 203.429 35.4209L202.722 36.128ZM203.86 38.861H202.86C202.86 39.6741 202.584 40.3348 202.012 40.9117L202.722 41.616L203.432 42.3203C204.372 41.3732 204.86 40.2079 204.86 38.861H203.86ZM197.609 36.503L196.899 35.7992C196.066 36.6398 195.639 37.6799 195.639 38.861H196.639H197.639C197.639 38.2062 197.858 37.6723 198.319 37.2069L197.609 36.503ZM196.639 38.861H195.639C195.639 40.0533 196.059 41.0968 196.894 41.9413L197.605 41.238L198.316 40.5347C197.859 40.0732 197.639 39.5387 197.639 38.861H196.639ZM197.605 41.238L196.893 41.9403C197.734 42.7925 198.778 43.223 199.965 43.223V42.223V41.223C199.308 41.223 198.778 41.0035 198.317 40.5358L197.605 41.238ZM199.965 42.223V43.223C201.167 43.223 202.207 42.7932 203.048 41.9403L202.336 41.238L201.624 40.5358C201.163 41.0029 200.639 41.223 199.965 41.223V42.223ZM202.336 41.238L203.046 41.9419C203.882 41.0989 204.306 40.0558 204.306 38.861H203.306H202.306C202.306 39.5363 202.084 40.0712 201.626 40.5342L202.336 41.238ZM203.306 38.861H204.306C204.306 37.6806 203.881 36.64 203.046 35.7986L202.336 36.503L201.626 37.2074C202.087 37.6721 202.306 38.2055 202.306 38.861H203.306ZM202.336 36.503L203.04 35.7932C202.2 34.9588 201.165 34.521 199.965 34.521V35.521V36.521C200.627 36.521 201.158 36.7432 201.632 37.2128L202.336 36.503ZM199.965 35.521V34.521C198.775 34.521 197.746 34.9616 196.906 35.7916L197.609 36.503L198.312 37.2144C198.791 36.7405 199.321 36.521 199.965 36.521V35.521Z" fill="#F5F5F5" mask="url(#path-1-inside-1_2_39)"/>
<path d="M181.42 40.562C184.181 40.5905 186.908 40.806 189.346 41.312C191.745 41.81 193.832 42.5844 195.394 43.7104C195.688 44.2365 195.932 44.7691 196.115 45.314V45.3149C196.491 46.4195 196.876 48.8097 197.167 52.0962C197.421 54.9553 197.6 58.4567 197.648 62.3062L197.659 63.9761C197.65 68.483 197.457 72.5905 197.167 75.8579C196.876 79.1447 196.491 81.5331 196.115 82.6343L196.115 82.6372C195.932 83.1827 195.688 83.7162 195.394 84.2417C193.832 85.3674 191.745 86.1417 189.346 86.6401C186.908 87.1465 184.181 87.3626 181.42 87.3921C178.659 87.3626 175.931 87.1472 173.493 86.6411C171.093 86.1427 169.005 85.3682 167.443 84.2417C167.226 83.8559 167.037 83.465 166.879 83.0669L166.72 82.6353C166.347 81.5335 165.964 79.1445 165.674 75.8579C165.386 72.5904 165.193 68.483 165.184 63.9761C165.193 59.4699 165.386 55.3636 165.674 52.0962C165.964 48.8098 166.347 46.4193 166.721 45.314L166.72 45.313C166.905 44.7666 167.148 44.2342 167.444 43.7095C169.006 42.584 171.094 41.8111 173.493 41.313C175.931 40.8069 178.659 40.5905 181.42 40.562ZM181.421 45.1206C179.844 45.1206 178.49 46.2997 178.49 47.8481V80.1069C178.49 81.6525 179.844 82.8315 181.421 82.8315C182.994 82.8314 184.347 81.6531 184.347 80.1069V47.8481C184.347 46.3014 182.995 45.1208 181.421 45.1206Z" fill="#F5F5F5" stroke="#F5F5F5"/>
<path d="M37.073 20.7768C41.6739 20.1711 46.1014 20.1703 50.3523 20.7719V44.6254L51.0994 44.1996C54.0919 42.4948 57.8547 41.8481 59.4089 41.8481C61.7992 41.8481 63.7999 42.5524 65.4431 43.9438L65.4451 43.9457C67.1412 45.3638 68.1433 46.9783 68.4968 48.7875L68.4988 48.7934C68.8831 50.65 69.0856 54.124 69.0876 59.2368V91.4262C64.8073 92.0284 61.1082 92.0278 56.6228 91.4233V58.4575C56.6228 56.8717 56.6216 55.753 56.6199 54.9213C56.6181 54.0891 56.616 53.5452 56.616 53.1069C56.6159 52.0485 56.1447 51.2497 55.5212 50.725C54.9115 50.2121 54.1454 49.9506 53.5056 49.9506C52.9147 49.9507 52.1342 50.1527 51.49 50.6166C50.8275 51.0938 50.2996 51.8591 50.2996 52.9438C50.2996 53.4985 50.3137 54.0606 50.3269 54.8188C50.3401 55.5795 50.3533 56.5482 50.3533 57.9272V57.9282L50.3943 82.4975C45.215 83.0802 41.4927 83.0808 37.1062 82.5053L37.073 20.7768Z" fill="#F5F5F5" stroke="#F5F5F5"/>
<mask id="path-5-inside-2_2_39" fill="white">
<path d="M32.959 68.634C32.758 75.524 32.562 80.917 31.905 82.836C31.698 83.452 31.426 84.043 31.094 84.627C27.788 87.059 22.3 87.876 16.733 87.937C11.171 87.876 5.674 87.059 2.37 84.627C2.043 84.043 1.774 83.452 1.563 82.836C0.769 80.507 0.015 73.062 0 64.017C0.015 54.976 0.769 47.53 1.563 45.199C1.774 44.585 2.042 43.988 2.37 43.41C5.675 40.975 11.172 40.161 16.733 40.1C22.3 40.161 27.789 40.975 31.094 43.41C31.425 43.988 31.698 44.585 31.905 45.199C32.567 47.149 32.774 52.382 32.969 59.428H19.165V47.883C19.165 46.66 18.078 45.663 16.733 45.663C15.39 45.663 14.303 46.66 14.303 47.883V80.143C14.303 81.378 15.39 82.372 16.733 82.372C18.078 82.372 19.165 81.379 19.165 80.143V68.634"/>
</mask>
<path d="M32.959 68.634C32.758 75.524 32.562 80.917 31.905 82.836C31.698 83.452 31.426 84.043 31.094 84.627C27.788 87.059 22.3 87.876 16.733 87.937C11.171 87.876 5.674 87.059 2.37 84.627C2.043 84.043 1.774 83.452 1.563 82.836C0.769 80.507 0.015 73.062 0 64.017C0.015 54.976 0.769 47.53 1.563 45.199C1.774 44.585 2.042 43.988 2.37 43.41C5.675 40.975 11.172 40.161 16.733 40.1C22.3 40.161 27.789 40.975 31.094 43.41C31.425 43.988 31.698 44.585 31.905 45.199C32.567 47.149 32.774 52.382 32.969 59.428H19.165V47.883C19.165 46.66 18.078 45.663 16.733 45.663C15.39 45.663 14.303 46.66 14.303 47.883V80.143C14.303 81.378 15.39 82.372 16.733 82.372C18.078 82.372 19.165 81.379 19.165 80.143V68.634" fill="#F5F5F5"/>
<path d="M31.905 82.836L30.9589 82.5121L30.9571 82.5174L31.905 82.836ZM31.094 84.627L31.6866 85.4325L31.8581 85.3063L31.9633 85.1212L31.094 84.627ZM16.733 87.937L16.722 88.9369L16.733 88.937L16.744 88.9369L16.733 87.937ZM2.37 84.627L1.49747 85.1155L1.60309 85.3042L1.7772 85.4323L2.37 84.627ZM1.563 82.836L0.616491 83.1587L0.61696 83.16L1.563 82.836ZM0 64.017L-1 64.0153L-0.999999 64.0186L0 64.017ZM1.563 45.199L0.61728 44.874L0.616408 44.8765L1.563 45.199ZM2.37 43.41L1.77684 42.6049L1.60539 42.7312L1.50028 42.9164L2.37 43.41ZM16.733 40.1L16.744 39.1L16.733 39.0999L16.722 39.1L16.733 40.1ZM31.094 43.41L31.9618 42.913L31.857 42.73L31.6872 42.6049L31.094 43.41ZM31.905 45.199L30.9574 45.5184L30.9581 45.5204L31.905 45.199ZM32.969 59.428V60.428H33.9971L33.9686 59.4003L32.969 59.428ZM19.165 59.428H18.165V60.428H19.165V59.428ZM32.959 68.634L31.9594 68.6048C31.8588 72.0527 31.76 75.1062 31.605 77.5354C31.4471 80.0116 31.2364 81.7015 30.9589 82.5121L31.905 82.836L32.8511 83.1599C33.2306 82.0515 33.4464 80.0854 33.601 77.6628C33.7585 75.1933 33.8582 72.1053 33.9586 68.6631L32.959 68.634ZM31.905 82.836L30.9571 82.5174C30.7731 83.0649 30.5291 83.5973 30.2247 84.1328L31.094 84.627L31.9633 85.1212C32.3229 84.4887 32.6229 83.839 32.8529 83.1545L31.905 82.836ZM31.094 84.627L30.5014 83.8215C29.0083 84.9199 26.9643 85.6917 24.5578 86.192C22.1603 86.6905 19.4655 86.907 16.722 86.937L16.733 87.937L16.744 88.9369C19.5675 88.906 22.4002 88.6834 24.9649 88.1502C27.5207 87.6188 29.8737 86.7661 31.6866 85.4325L31.094 84.627ZM16.733 87.937L16.744 86.937C14.0031 86.907 11.3071 86.6905 8.90821 86.192C6.5001 85.6916 4.45464 84.9197 2.9628 83.8216L2.37 84.627L1.7772 85.4323C3.58936 86.7662 5.9444 87.6189 8.50129 88.1502C11.0674 88.6834 13.9009 88.906 16.722 88.9369L16.733 87.937ZM2.37 84.627L3.24253 84.1384C2.94222 83.6021 2.69881 83.066 2.50904 82.5119L1.563 82.836L0.61696 83.16C0.849185 83.838 1.14378 84.4839 1.49747 85.1155L2.37 84.627ZM1.563 82.836L2.50951 82.5133C2.15635 81.4774 1.77571 79.1467 1.48551 75.8571C1.19868 72.6059 1.00746 68.5123 0.999999 64.0153L0 64.017L-0.999999 64.0186C-0.992456 68.5667 -0.799182 72.7181 -0.506756 76.0329C-0.21771 79.3093 0.175647 81.8656 0.616492 83.1587L1.563 82.836ZM0 64.017L0.999999 64.0186C1.00746 59.5237 1.19868 55.4309 1.48551 52.1796C1.7757 48.8901 2.15635 46.5585 2.50959 45.5214L1.563 45.199L0.616408 44.8765C0.175652 46.1705 -0.217703 48.7273 -0.506756 52.0038C-0.799181 55.3186 -0.992456 59.4693 -0.999999 64.0153L0 64.017ZM1.563 45.199L2.50872 45.524C2.69976 44.968 2.94239 44.4275 3.23972 43.9035L2.37 43.41L1.50028 42.9164C1.14162 43.5485 0.848236 44.2019 0.617284 44.874L1.563 45.199ZM2.37 43.41L2.96316 44.2151C4.45532 43.1157 6.50079 42.3439 8.90882 41.8438C11.3077 41.3457 14.0034 41.13 16.744 41.0999L16.733 40.1L16.722 39.1C13.9016 39.131 11.0683 39.3528 8.50218 39.8856C5.94521 40.4166 3.58968 41.2693 1.77684 42.6049L2.37 43.41ZM16.733 40.1L16.722 41.0999C19.4657 41.13 22.1608 41.3457 24.5583 41.8438C26.9649 42.3438 29.0085 43.1156 30.5008 44.2151L31.094 43.41L31.6872 42.6049C29.8745 41.2694 27.5211 40.4167 24.9652 39.8856C22.4002 39.3527 19.5673 39.131 16.744 39.1L16.733 40.1ZM31.094 43.41L30.2262 43.9069C30.5275 44.433 30.7728 44.9708 30.9574 45.5184L31.905 45.199L32.8526 44.8795C32.6232 44.1991 32.3225 43.5429 31.9618 42.913L31.094 43.41ZM31.905 45.199L30.9581 45.5204C31.2398 46.3503 31.454 48.0136 31.6143 50.4676C31.7717 52.879 31.8718 55.931 31.9694 59.4556L32.969 59.428L33.9686 59.4003C33.8712 55.879 33.7703 52.7914 33.61 50.3373C33.4525 47.9258 33.2322 45.9976 32.8519 44.8775L31.905 45.199ZM32.969 59.428V58.428H19.165V59.428V60.428H32.969V59.428ZM19.165 59.428H20.165V47.883H19.165H18.165V59.428H19.165ZM19.165 47.883H20.165C20.165 46.0251 18.5439 44.663 16.733 44.663V45.663V46.663C17.6121 46.663 18.165 47.2948 18.165 47.883H19.165ZM16.733 45.663V44.663C14.9235 44.663 13.303 46.0256 13.303 47.883H14.303H15.303C15.303 47.2943 15.8565 46.663 16.733 46.663V45.663ZM14.303 47.883H13.303V80.143H14.303H15.303V47.883H14.303ZM14.303 80.143H13.303C13.303 82.0106 14.9217 83.372 16.733 83.372V82.372V81.372C15.8583 81.372 15.303 80.7453 15.303 80.143H14.303ZM16.733 82.372V83.372C18.5455 83.372 20.165 82.0124 20.165 80.143H19.165H18.165C18.165 80.7455 17.6105 81.372 16.733 81.372V82.372ZM19.165 80.143H20.165V68.634H19.165H18.165V80.143H19.165Z" fill="#F5F5F5" mask="url(#path-5-inside-2_2_39)"/>
<mask id="path-7-inside-3_2_39" fill="white">
<path d="M124.991 73.041C124.773 79.931 124.581 85.314 123.923 87.243C123.718 87.852 123.447 88.448 123.114 89.028C119.806 91.466 114.327 92.281 108.755 92.336C103.19 92.281 97.703 91.466 94.394 89.028C94.069 88.448 93.79 87.852 93.585 87.243C92.795 84.907 92.037 77.463 92.021 68.42C92.038 59.381 92.795 51.935 93.585 49.601C93.79 48.99 94.068 48.395 94.394 47.817C97.704 45.375 103.19 44.561 108.755 44.507C114.327 44.561 119.807 45.374 123.114 47.817C123.447 48.395 123.718 48.99 123.923 49.601C124.589 51.554 124.797 56.787 124.997 63.835H111.189V52.293C111.189 51.059 110.093 50.07 108.754 50.07C107.411 50.07 106.326 51.058 106.326 52.293V84.55C106.326 85.781 107.411 86.777 108.754 86.777C110.093 86.777 111.189 85.782 111.189 84.55V73.041"/>
</mask>
<path d="M124.991 73.041C124.773 79.931 124.581 85.314 123.923 87.243C123.718 87.852 123.447 88.448 123.114 89.028C119.806 91.466 114.327 92.281 108.755 92.336C103.19 92.281 97.703 91.466 94.394 89.028C94.069 88.448 93.79 87.852 93.585 87.243C92.795 84.907 92.037 77.463 92.021 68.42C92.038 59.381 92.795 51.935 93.585 49.601C93.79 48.99 94.068 48.395 94.394 47.817C97.704 45.375 103.19 44.561 108.755 44.507C114.327 44.561 119.807 45.374 123.114 47.817C123.447 48.395 123.718 48.99 123.923 49.601C124.589 51.554 124.797 56.787 124.997 63.835H111.189V52.293C111.189 51.059 110.093 50.07 108.754 50.07C107.411 50.07 106.326 51.058 106.326 52.293V84.55C106.326 85.781 107.411 86.777 108.754 86.777C110.093 86.777 111.189 85.782 111.189 84.55V73.041" fill="#F5F5F5"/>
<path d="M123.923 87.243L122.977 86.9202L122.975 86.924L123.923 87.243ZM123.114 89.028L123.707 89.833L123.877 89.7083L123.981 89.5259L123.114 89.028ZM108.755 92.336L108.745 93.336L108.755 93.3361L108.765 93.336L108.755 92.336ZM94.394 89.028L93.5216 89.5168L93.6271 89.7051L93.8008 89.8331L94.394 89.028ZM93.585 87.243L94.5327 86.924L94.5323 86.9227L93.585 87.243ZM92.021 68.42L91.021 68.4181L91.021 68.4218L92.021 68.42ZM93.585 49.601L94.5322 49.9216L94.5331 49.9191L93.585 49.601ZM94.394 47.817L93.8003 47.0123L93.6281 47.1394L93.523 47.3258L94.394 47.817ZM108.755 44.507L108.765 43.5071L108.755 43.507L108.745 43.5071L108.755 44.507ZM123.114 47.817L123.98 47.3178L123.876 47.1368L123.708 47.0127L123.114 47.817ZM123.923 49.601L122.975 49.9191L122.977 49.9238L123.923 49.601ZM124.997 63.835V64.835H126.026L125.997 63.8067L124.997 63.835ZM111.189 63.835H110.189V64.835H111.189V63.835ZM124.991 73.041L123.991 73.0094C123.882 76.4583 123.78 79.5094 123.624 81.9382C123.465 84.4132 123.255 86.1038 122.977 86.9202L123.923 87.243L124.869 87.5659C125.249 86.4533 125.464 84.4878 125.62 82.0666C125.779 79.5991 125.882 76.5137 125.99 73.0726L124.991 73.041ZM123.923 87.243L122.975 86.924C122.792 87.4673 122.549 88.0035 122.247 88.5301L123.114 89.028L123.981 89.5259C124.345 88.8925 124.644 88.2368 124.871 87.562L123.923 87.243ZM123.114 89.028L122.521 88.223C119.49 90.4566 114.301 91.2812 108.745 91.3361L108.755 92.336L108.765 93.336C114.353 93.2808 120.122 92.4754 123.707 89.833L123.114 89.028ZM108.755 92.336L108.765 91.3361C106.023 91.309 103.329 91.0945 100.932 90.5965C98.526 90.0968 96.4817 89.3241 94.9872 88.2229L94.394 89.028L93.8008 89.8331C95.6153 91.17 97.969 92.0238 100.525 92.5547C103.09 93.0876 105.922 93.3081 108.745 93.336L108.755 92.336ZM94.394 89.028L95.2664 88.5392C94.9642 87.9998 94.7136 87.4612 94.5327 86.924L93.585 87.243L92.6372 87.562C92.8664 88.2429 93.1738 88.8962 93.5216 89.5168L94.394 89.028ZM93.585 87.243L94.5323 86.9227C94.1803 85.8817 93.7996 83.5479 93.5089 80.2586C93.2214 77.0069 93.0289 72.9141 93.021 68.4183L92.021 68.42L91.021 68.4218C91.029 72.9689 91.2236 77.1197 91.5166 80.4347C91.8064 83.7122 92.1997 86.2683 92.6377 87.5634L93.585 87.243ZM92.021 68.42L93.021 68.4219C93.0294 63.928 93.2219 59.8357 93.5092 56.5842C93.7999 53.295 94.1803 50.9613 94.5322 49.9216L93.585 49.601L92.6378 49.2804C92.1997 50.5747 91.8066 53.1311 91.517 56.4081C91.2241 59.7229 91.0295 63.873 91.021 68.4181L92.021 68.42ZM93.585 49.601L94.5331 49.9191C94.7139 49.3801 94.9632 48.8434 95.265 48.3083L94.394 47.817L93.523 47.3258C93.1728 47.9467 92.8661 48.5999 92.6369 49.2829L93.585 49.601ZM94.394 47.817L94.9877 48.6217C96.4826 47.5188 98.5267 46.7455 100.932 46.2456C103.329 45.7476 106.023 45.5336 108.765 45.507L108.755 44.507L108.745 43.5071C105.922 43.5345 103.09 43.7544 100.525 44.2874C97.9693 44.8186 95.6154 45.6732 93.8003 47.0123L94.394 47.817ZM108.755 44.507L108.745 45.507C111.491 45.5336 114.185 45.7474 116.58 46.2452C118.985 46.7449 121.026 47.5182 122.52 48.6213L123.114 47.817L123.708 47.0127C121.895 45.6729 119.543 44.8181 116.987 44.2871C114.423 43.7542 111.591 43.5345 108.765 43.5071L108.755 44.507ZM123.114 47.817L122.248 48.3162C122.549 48.8402 122.792 49.3747 122.975 49.9191L123.923 49.601L124.871 49.2829C124.644 48.6053 124.345 47.9499 123.98 47.3178L123.114 47.817ZM123.923 49.601L122.977 49.9238C123.26 50.7548 123.475 52.4184 123.637 54.8731C123.796 57.2852 123.897 60.3375 123.997 63.8634L124.997 63.835L125.997 63.8067C125.897 60.2845 125.794 57.1964 125.633 54.7417C125.474 52.3296 125.252 50.4003 124.869 49.2783L123.923 49.601ZM124.997 63.835V62.835H111.189V63.835V64.835H124.997V63.835ZM111.189 63.835H112.189V52.293H111.189H110.189V63.835H111.189ZM111.189 52.293H112.189C112.189 50.4197 110.554 49.07 108.754 49.07V50.07V51.07C109.632 51.07 110.189 51.6983 110.189 52.293H111.189ZM108.754 50.07V49.07C106.945 49.07 105.326 50.423 105.326 52.293H106.326H107.326C107.326 51.693 107.877 51.07 108.754 51.07V50.07ZM106.326 52.293H105.326V84.55H106.326H107.326V52.293H106.326ZM106.326 84.55H105.326C105.326 86.4127 106.942 87.777 108.754 87.777V86.777V85.777C107.88 85.777 107.326 85.1494 107.326 84.55H106.326ZM108.754 86.777V87.777C110.557 87.777 112.189 86.4185 112.189 84.55H111.189H110.189C110.189 85.1455 109.629 85.777 108.754 85.777V86.777ZM111.189 84.55H112.189V73.041H111.189H110.189V84.55H111.189Z" fill="#F5F5F5" mask="url(#path-7-inside-3_2_39)"/>
<mask id="path-9-inside-4_2_39" fill="white">
<path d="M161.19 64.007C160.976 70.901 160.784 76.29 160.127 78.209C159.918 78.824 159.651 79.417 159.321 79.995C156.01 82.433 150.52 83.246 144.955 83.308C139.393 83.246 133.901 82.434 130.598 79.995C130.265 79.417 129.993 78.824 129.787 78.209C128.991 75.877 128.241 68.433 128.223 59.39C128.242 50.347 128.992 42.905 129.787 40.571C129.992 39.958 130.265 39.365 130.598 38.785C133.902 36.347 139.394 35.533 144.955 35.477C150.52 35.533 156.011 36.346 159.321 38.785C159.651 39.365 159.918 39.958 160.127 40.571C160.789 42.525 160.992 47.752 161.195 54.802H147.384V43.263C147.384 42.031 146.297 41.035 144.954 41.035C143.613 41.035 142.522 42.03 142.522 43.263V75.519C142.522 76.749 143.613 77.747 144.954 77.747C146.297 77.747 147.384 76.75 147.384 75.519V64.007"/>
</mask>
<path d="M161.19 64.007C160.976 70.901 160.784 76.29 160.127 78.209C159.918 78.824 159.651 79.417 159.321 79.995C156.01 82.433 150.52 83.246 144.955 83.308C139.393 83.246 133.901 82.434 130.598 79.995C130.265 79.417 129.993 78.824 129.787 78.209C128.991 75.877 128.241 68.433 128.223 59.39C128.242 50.347 128.992 42.905 129.787 40.571C129.992 39.958 130.265 39.365 130.598 38.785C133.902 36.347 139.394 35.533 144.955 35.477C150.52 35.533 156.011 36.346 159.321 38.785C159.651 39.365 159.918 39.958 160.127 40.571C160.789 42.525 160.992 47.752 161.195 54.802H147.384V43.263C147.384 42.031 146.297 41.035 144.954 41.035C143.613 41.035 142.522 42.03 142.522 43.263V75.519C142.522 76.749 143.613 77.747 144.954 77.747C146.297 77.747 147.384 76.75 147.384 75.519V64.007" fill="#F5F5F5"/>
<path d="M160.127 78.209L159.181 77.8851L159.18 77.8872L160.127 78.209ZM159.321 79.995L159.914 80.8002L160.084 80.6747L160.189 80.4908L159.321 79.995ZM144.955 83.308L144.944 84.3079L144.955 84.3081L144.966 84.3079L144.955 83.308ZM130.598 79.995L129.731 80.4942L129.836 80.6753L130.004 80.7994L130.598 79.995ZM129.787 78.209L130.735 77.8914L130.733 77.8859L129.787 78.209ZM128.223 59.39L127.223 59.3879L127.223 59.392L128.223 59.39ZM129.787 40.571L130.734 40.8934L130.735 40.8881L129.787 40.571ZM130.598 38.785L130.004 37.9803L129.835 38.105L129.731 38.2871L130.598 38.785ZM144.955 35.477L144.965 34.477L144.955 34.4769L144.945 34.477L144.955 35.477ZM159.321 38.785L160.19 38.2905L160.085 38.1059L159.914 37.9799L159.321 38.785ZM160.127 40.571L161.074 40.2501L161.073 40.2483L160.127 40.571ZM161.195 54.802V55.802H162.224L162.194 54.7732L161.195 54.802ZM147.384 54.802H146.384V55.802H147.384V54.802ZM161.19 64.007L160.19 63.976C160.083 67.4267 159.982 70.4803 159.827 72.9097C159.668 75.386 159.458 77.0745 159.181 77.8851L160.127 78.209L161.073 78.5329C161.452 77.4244 161.667 75.459 161.822 73.0375C161.981 70.5692 162.083 67.4813 162.189 64.038L161.19 64.007ZM160.127 78.209L159.18 77.8872C158.992 78.4412 158.751 78.9759 158.452 79.4992L159.321 79.995L160.189 80.4908C160.551 79.858 160.844 79.2068 161.074 78.5308L160.127 78.209ZM159.321 79.995L158.728 79.1897C157.232 80.2909 155.187 81.0632 152.78 81.5634C150.381 82.0618 147.687 82.2775 144.944 82.3081L144.955 83.308L144.966 84.3079C147.788 84.2765 150.621 84.0547 153.187 83.5216C155.743 82.9903 158.098 82.1371 159.914 80.8002L159.321 79.995ZM144.955 83.308L144.966 82.3081C142.225 82.2775 139.53 82.062 137.133 81.5638C134.726 81.0637 132.683 80.2915 131.192 79.1905L130.598 79.995L130.004 80.7994C131.816 82.1375 134.17 82.9908 136.726 83.5219C139.291 84.055 142.123 84.2765 144.944 84.3079L144.955 83.308ZM130.598 79.995L131.464 79.4958C131.162 78.9704 130.918 78.438 130.735 77.8914L129.787 78.209L128.839 78.5266C129.068 79.21 129.368 79.8636 129.731 80.4942L130.598 79.995ZM129.787 78.209L130.733 77.8859C130.379 76.8489 129.999 74.518 129.709 71.2283C129.423 67.9772 129.232 63.8842 129.223 59.388L128.223 59.39L127.223 59.392C127.232 63.9388 127.425 68.0893 127.717 71.4039C128.006 74.68 128.399 77.2371 128.841 78.532L129.787 78.209ZM128.223 59.39L129.223 59.3921C129.232 54.8958 129.424 50.8034 129.71 47.5524C130 44.2631 130.38 41.9319 130.733 40.8934L129.787 40.571L128.84 40.2486C128.399 41.5441 128.006 44.1008 127.718 47.3768C127.426 50.6911 127.232 54.8411 127.223 59.3879L128.223 59.39ZM129.787 40.571L130.735 40.8881C130.917 40.3448 131.161 39.8122 131.465 39.2829L130.598 38.785L129.731 38.2871C129.369 38.9178 129.067 39.5711 128.839 40.2538L129.787 40.571ZM130.598 38.785L131.192 39.5896C132.683 38.489 134.727 37.7165 137.133 37.2168C139.531 36.719 142.225 36.5045 144.965 36.4769L144.955 35.477L144.945 34.477C142.124 34.5054 139.292 34.7259 136.727 35.2586C134.171 35.7894 131.817 36.643 130.004 37.9803L130.598 38.785ZM144.955 35.477L144.945 36.4769C147.687 36.5045 150.382 36.7188 152.78 37.2165C155.187 37.7161 157.233 38.4885 158.728 39.59L159.321 38.785L159.914 37.9799C158.099 36.6424 155.744 35.7889 153.187 35.2582C150.621 34.7257 147.788 34.5054 144.965 34.477L144.955 35.477ZM159.321 38.785L158.452 39.2795C158.751 39.8057 158.992 40.3412 159.18 40.8937L160.127 40.571L161.073 40.2483C160.844 39.5747 160.551 38.9243 160.19 38.2905L159.321 38.785ZM160.127 40.571L159.18 40.8919C159.462 41.724 159.675 43.3869 159.835 45.8407C159.993 48.252 160.094 51.3035 160.195 54.8308L161.195 54.802L162.194 54.7732C162.093 51.2505 161.991 48.1635 161.831 45.7103C161.673 43.2995 161.454 41.372 161.074 40.2501L160.127 40.571ZM161.195 54.802V53.802H147.384V54.802V55.802H161.195V54.802ZM147.384 54.802H148.384V43.263H147.384H146.384V54.802H147.384ZM147.384 43.263H148.384C148.384 41.3986 146.766 40.035 144.954 40.035V41.035V42.035C145.828 42.035 146.384 42.6634 146.384 43.263H147.384ZM144.954 41.035V40.035C143.146 40.035 141.522 41.3958 141.522 43.263H142.522H143.522C143.522 42.6642 144.08 42.035 144.954 42.035V41.035ZM142.522 43.263H141.522V75.519H142.522H143.522V43.263H142.522ZM142.522 75.519H141.522C141.522 77.3824 143.145 78.747 144.954 78.747V77.747V76.747C144.08 76.747 143.522 76.1156 143.522 75.519H142.522ZM144.954 77.747V78.747C146.766 78.747 148.384 77.3821 148.384 75.519H147.384H146.384C146.384 76.1179 145.828 76.747 144.954 76.747V77.747ZM147.384 75.519H148.384V64.007H147.384H146.384V75.519H147.384Z" fill="#F5F5F5" mask="url(#path-9-inside-4_2_39)"/>
<path d="M74.323 36.6729C78.6363 35.862 82.9411 35.8617 87.7283 36.6797V82.3457C83.345 83.0395 79.2633 82.9917 74.323 82.335V36.6729Z" fill="#F5F5F5" stroke="#F5F5F5"/>
<path d="M80.429 26.27C73.1747 26.27 67.294 20.3893 67.294 13.135C67.294 5.88074 73.1747 0 80.429 0C87.6832 0 93.564 5.88074 93.564 13.135C93.564 20.3893 87.6832 26.27 80.429 26.27Z" fill="url(#paint0_linear_2_39)"/>
<defs>
<linearGradient id="paint0_linear_2_39" x1="89.2877" y1="21.9399" x2="67.294" y2="13.135" gradientUnits="userSpaceOnUse">
<stop stop-color="#F5F5F5"/>
<stop offset="0.221692" stop-color="#F5F5F5"/>
<stop offset="1" stop-color="#F5F5F5"/>
</linearGradient>
</defs>
</svg>
