<svg width="254" height="53" viewBox="0 0 254 53" fill="none" xmlns="http://www.w3.org/2000/svg">
<path d="M198.73 11.45L199.39 11.28C199.556 11.2199 199.696 11.1046 199.787 10.9535C199.878 10.8024 199.914 10.6247 199.89 10.45C199.89 9.79004 199.56 9.62003 198.73 9.62003H189.43C188.6 9.62003 188.27 9.95004 188.27 10.45C188.27 10.95 188.44 11.11 189.27 11.45C190.27 11.78 190.76 12.11 190.76 12.94C190.788 13.3532 190.671 13.7632 190.43 14.1C190.1 14.76 183.96 31.36 183.96 31.36C183.96 31.36 177.65 14.59 177.49 14.1C177.305 13.7389 177.192 13.3447 177.16 12.94C177.16 12.11 177.49 11.78 178.65 11.45C179.48 11.28 179.65 11.12 179.65 10.45C179.65 9.78004 179.32 9.62003 178.49 9.62003H166.32C165.49 9.62003 165.16 9.95004 165.16 10.45C165.136 10.6247 165.172 10.8024 165.263 10.9535C165.354 11.1046 165.494 11.2199 165.66 11.28C165.725 11.344 165.804 11.3925 165.891 11.4219C165.977 11.4514 166.069 11.461 166.16 11.45C166.82 11.78 167.16 12.28 167.65 13.61C168.15 14.77 178.65 42 178.94 42.5C179.139 42.9876 179.419 43.4375 179.77 43.83C179.927 43.968 180.112 44.0692 180.313 44.1263C180.513 44.1834 180.724 44.1949 180.93 44.16H183.09C183.498 44.1505 183.898 44.037 184.25 43.83C184.621 43.4529 184.904 42.9988 185.08 42.5C185.25 42.17 196.37 14.11 196.37 14.11C197.53 12.11 197.7 11.62 198.69 11.45M105.06 33.53C104.23 33.36 103.9 33.7 103.4 34.69C101.08 39.5 97.92 41.99 93.27 41.99C86.27 41.82 82.15 36.51 82.27 26.05C82.44 17.58 85.92 11.61 92.4 11.77C97.05 11.77 100.7 14.92 102.69 19.07C103.19 20.07 103.35 20.56 104.18 20.4C104.84 20.4 105.34 19.9 105.18 18.91C105.01 17.75 104.68 14.26 104.52 12.91C104.35 11.42 104.02 11.08 102.69 10.42C99.1596 8.99811 95.3746 8.31734 91.57 8.42001C80.57 8.42001 73.14 16.06 73.14 26.85C73.14 38.3 80.44 45.28 92.56 45.28C97.21 45.28 101.86 44.12 103.85 42.62C104.358 42.1926 104.709 41.6088 104.85 40.9601C105.02 39.6301 105.68 35.9601 105.85 35.1501C106.02 34.3401 105.85 33.66 105.02 33.49M226.87 42.49C226.664 42.388 226.439 42.3302 226.21 42.32C225.21 41.99 224.88 41.49 224.05 39.66C223.22 37.66 212.93 11.44 212.76 11.11C212.59 10.78 212.43 10.28 212.1 10.11C211.93 9.61002 211.6 9.61002 210.94 9.61002H207.62C207.266 9.6433 206.924 9.75612 206.62 9.94003C206.362 10.2467 206.14 10.5822 205.96 10.94C205.63 11.94 194.84 38.66 194.17 40.16C193.792 41.0069 193.15 41.7087 192.34 42.16C192.016 42.2967 191.682 42.4071 191.34 42.49C191.174 42.5502 191.034 42.6654 190.943 42.8165C190.852 42.9676 190.816 43.1453 190.84 43.32C190.84 43.98 191.17 44.1501 192 44.1501H202.29C203.12 44.1501 203.45 43.82 203.45 43.32C203.45 42.82 203.28 42.66 202.45 42.32C201.12 41.99 200.62 41.66 200.62 40.66C200.681 40.098 200.791 39.5425 200.95 39C201.12 38.67 201.61 37.34 202.28 35.35H213.63C214.46 37.84 215.29 39.67 215.29 39.67C215.475 40.0312 215.588 40.4254 215.62 40.83C215.62 41.66 215.29 41.99 214.13 42.32C213.3 42.49 213.13 42.65 213.13 43.32C213.13 43.99 213.46 44.1501 214.29 44.1501H226.57C227.4 44.1501 227.73 43.82 227.73 43.32C227.543 42.9666 227.253 42.6774 226.9 42.49M203.49 32.03C205.32 26.88 207.81 20.03 207.81 20.03C207.81 20.03 210.3 27.03 212.13 32.03H203.49ZM144.07 11.31C144.9 11.14 145.23 10.98 145.23 10.31C145.23 9.81003 144.73 9.65002 144.07 9.65002H131.29C130.46 9.65002 130.13 9.98004 130.13 10.48C130.13 10.98 130.3 11.14 131.29 11.48C132.95 11.81 133.45 12.81 133.45 15.48V24.94H120.33V15.48C120.33 12.82 120.83 11.83 122.49 11.33C123.32 11.16 123.49 11 123.49 10.33C123.66 9.83002 123.32 9.67001 122.49 9.67001H109.73C108.9 9.67001 108.57 10 108.57 10.5C108.57 11 108.74 11.16 109.57 11.5C111.23 11.83 111.73 12.83 111.73 15.5V38.31C111.73 40.97 111.23 41.96 109.57 42.31C108.74 42.48 108.41 42.64 108.57 43.31C108.57 43.97 108.9 44.14 109.73 44.14H122.51C123.34 44.14 123.67 43.97 123.67 43.31C123.67 42.81 123.5 42.48 122.67 42.31C121.01 41.98 120.51 40.98 120.51 38.31V28.22H133.62V38.31C133.62 40.97 133.12 41.96 131.46 42.31C130.63 42.48 130.3 42.64 130.3 43.31C130.3 43.98 130.63 44.14 131.46 44.14H144.08C144.91 44.14 145.24 43.97 145.24 43.31C145.24 42.81 145.07 42.48 144.08 42.31C142.42 41.98 141.92 40.98 141.92 38.31V15.31C141.92 12.82 142.42 11.82 144.08 11.31M162.51 42.31C160.85 41.98 160.35 40.98 160.35 38.31V15.31C160.35 12.65 160.68 11.82 162.01 11.31C162.84 10.98 163.17 10.98 163.17 10.31C163.17 9.64003 162.84 9.48004 162.01 9.48004H149.73C148.9 9.48004 148.57 9.81003 148.57 10.31C148.57 10.81 148.74 10.97 149.57 11.31C151.23 11.64 151.73 12.64 151.73 15.31V38.22C151.73 40.88 151.23 41.87 149.57 42.22C148.74 42.39 148.57 42.55 148.57 43.22C148.57 43.89 148.9 44.05 149.73 44.05H162.33C163.16 44.05 163.49 43.88 163.49 43.22C163.66 42.72 163.32 42.56 162.49 42.39M245.66 23.3C243.5 22.3 242.17 21.64 240.35 20.98C237.35 19.65 236.2 18.16 236.2 15.98C236.2 13.49 238.03 11.66 240.85 11.66C243.51 11.66 245.85 12.99 247.66 15.98C248.227 16.8254 248.725 17.7149 249.15 18.64C249.65 19.47 249.98 19.8 250.48 19.8C250.633 19.8041 250.786 19.777 250.929 19.7202C251.071 19.6633 251.201 19.578 251.309 19.4695C251.418 19.3609 251.503 19.2314 251.56 19.0888C251.617 18.9462 251.644 18.7935 251.64 18.64C251.64 17.64 251.31 14.16 251.31 13.33C251.344 12.9066 251.287 12.4808 251.144 12.0809C251.001 11.6809 250.775 11.3159 250.48 11.01C250.063 10.458 249.482 10.0519 248.82 9.85004C246.363 8.99235 243.782 8.54304 241.18 8.52002C233.54 8.52002 228.56 12.84 228.56 19.14C228.56 23.29 231.05 26.7801 235.7 28.7701C238.36 29.9301 240.35 30.7701 241.84 31.5901C244.5 32.7501 245.99 34.41 245.99 37.07C245.99 40.07 243.5 41.72 240.51 41.72C236.86 41.72 233.87 39.56 231.88 36.24C231.38 35.41 230.55 33.92 230.22 33.42C230.115 33.1448 229.935 32.9048 229.699 32.7279C229.464 32.5509 229.183 32.4442 228.89 32.42C228.706 32.4145 228.524 32.4525 228.357 32.5309C228.191 32.6092 228.045 32.7256 227.932 32.8708C227.819 33.0159 227.742 33.1857 227.707 33.3662C227.672 33.5468 227.68 33.7331 227.73 33.91C227.9 35.24 228.56 39.22 228.89 40.38C228.943 41.0293 229.172 41.6517 229.553 42.1804C229.933 42.709 230.451 43.1238 231.05 43.38C233.942 44.7918 237.134 45.4782 240.35 45.38C248.15 45.38 253.46 40.73 253.46 34.26C253.63 28.95 251.3 25.79 245.66 23.26M48.45 41.83C47.45 40.83 46.96 40.17 46.96 39.51C47.1685 38.6598 47.5649 37.867 48.12 37.19C50.44 34.04 52.12 30.38 52.12 26.73C52.12 21.09 49.46 17.43 45.65 15.44C44.16 14.61 42.5 14.11 42.5 12.62C42.5 11.62 44.16 9.80003 45.32 8.62003C45.3593 8.59123 45.3912 8.5536 45.4132 8.51016C45.4353 8.46673 45.4467 8.41872 45.4467 8.37003C45.4467 8.32133 45.4353 8.27332 45.4132 8.22989C45.3912 8.18645 45.3593 8.14882 45.32 8.12003L41.83 4.63004C41.7177 4.47051 41.5675 4.34135 41.393 4.25409C41.2185 4.16683 41.025 4.1242 40.83 4.13004H32.53C30.7 4.13004 30.21 3.96003 28.88 2.47003L26.73 0.310028C26.6527 0.206564 26.5524 0.122564 26.437 0.0646973C26.3215 0.00683009 26.1941 -0.0233154 26.065 -0.0233154C25.9359 -0.0233154 25.8085 0.00683009 25.6931 0.0646973C25.5776 0.122564 25.4773 0.206564 25.4 0.310028L23.24 2.47003C21.75 3.96003 21.41 4.13004 19.59 4.13004H11.29C11.095 4.1242 10.9015 4.16683 10.727 4.25409C10.5525 4.34135 10.4024 4.47051 10.29 4.63004L6.80002 8.12003C6.76075 8.14882 6.7288 8.18645 6.70679 8.22989C6.68478 8.27332 6.67331 8.32133 6.67331 8.37003C6.67331 8.41872 6.68478 8.46673 6.70679 8.51016C6.7288 8.5536 6.76075 8.59123 6.80002 8.62003C7.96002 9.78003 9.62003 11.44 9.62003 12.44C9.62003 13.93 7.96 14.6 6.47 15.26C2.65 17.26 0 20.9 0 26.55C0 30.37 1.66 33.85 4 37.01C4.66 38.17 5.16 38.84 5.16 39.5C5.16 40.16 4.66001 40.83 3.67001 41.82L2.01001 43.48C1.97074 43.5088 1.93882 43.5464 1.91681 43.5899C1.8948 43.6333 1.8833 43.6813 1.8833 43.73C1.8833 43.7787 1.8948 43.8267 1.91681 43.8701C1.93882 43.9136 1.97074 43.9512 2.01001 43.98L5.66 47.63C5.6888 47.6693 5.72643 47.7012 5.76987 47.7232C5.8133 47.7452 5.86131 47.7567 5.91 47.7567C5.9587 47.7567 6.00671 47.7452 6.05014 47.7232C6.09357 47.7012 6.13121 47.6693 6.16 47.63L8.16 45.63C8.44176 45.2826 8.79453 44.9993 9.19464 44.7993C9.59476 44.5992 10.033 44.4869 10.48 44.47C11.5705 44.5612 12.6118 44.9639 13.48 45.63C17.8 48.45 25.27 52.63 26.1 52.63C26.43 52.63 30.42 51.14 38.72 45.63C39.5323 44.8698 40.6076 44.454 41.72 44.47C42.5415 44.5142 43.3148 44.8722 43.88 45.47L45.88 47.47C45.9088 47.5093 45.9464 47.5413 45.9899 47.5633C46.0333 47.5853 46.0813 47.5967 46.13 47.5967C46.1787 47.5967 46.2267 47.5853 46.2701 47.5633C46.3136 47.5413 46.3512 47.5093 46.38 47.47L50.03 43.82C50.0693 43.7912 50.1012 43.7536 50.1232 43.7102C50.1452 43.6667 50.1567 43.6187 50.1567 43.57C50.1567 43.5213 50.1452 43.4733 50.1232 43.4299C50.1012 43.3865 50.0693 43.3488 50.03 43.32L48.45 41.83ZM26.04 46.31C26.04 46.31 5.79001 36.31 5.79001 26.72C5.76251 25.7394 5.93826 24.7637 6.30618 23.8542C6.67411 22.9448 7.22626 22.1214 7.92789 21.4357C8.62952 20.75 9.46544 20.217 10.3831 19.8701C11.3007 19.5232 12.2803 19.37 13.26 19.42C15.7656 19.5106 18.1663 20.4484 20.07 22.08L20.24 22.25C20.2627 22.2515 20.2855 22.2481 20.3068 22.2401C20.3281 22.2321 20.3474 22.2196 20.3635 22.2035C20.3796 22.1874 20.392 22.1681 20.4001 22.1468C20.4081 22.1255 20.4115 22.1027 20.41 22.08L24.23 18.26C24.2693 18.2312 24.3012 18.1936 24.3232 18.1502C24.3452 18.1067 24.3567 18.0587 24.3567 18.01C24.3567 17.9613 24.3452 17.9133 24.3232 17.8699C24.3012 17.8265 24.2693 17.7888 24.23 17.76L19.23 12.76C18.7616 12.3254 18.4667 11.7356 18.4 11.1C18.4328 10.7739 18.5886 10.4725 18.8356 10.257C19.0826 10.0416 19.4024 9.92822 19.73 9.94003H32.18C32.3454 9.91883 32.5134 9.93292 32.673 9.98138C32.8325 10.0298 32.98 10.1116 33.1057 10.2212C33.2314 10.3308 33.3323 10.4658 33.402 10.6172C33.4717 10.7687 33.5085 10.9333 33.51 11.1C33.4434 11.7356 33.1485 12.3254 32.68 12.76L11.93 33.53C11.8908 33.5588 11.8588 33.5964 11.8368 33.6399C11.8148 33.6833 11.8033 33.7313 11.8033 33.78C11.8033 33.8287 11.8148 33.8767 11.8368 33.9201C11.8588 33.9636 11.8908 34.0012 11.93 34.03C13.1897 35.2751 14.5256 36.4408 15.93 37.5201C15.93 37.5201 16.26 37.6901 16.43 37.5201C16.43 37.5201 30.37 23.41 32.03 22.08C34.0156 20.4619 36.4709 19.5289 39.03 19.42C39.9939 19.401 40.9517 19.5768 41.846 19.9369C42.7403 20.297 43.5526 20.834 44.2343 21.5157C44.916 22.1974 45.453 23.0098 45.8131 23.9041C46.1732 24.7984 46.3491 25.7561 46.33 26.72C46.3 36.31 26.04 46.31 26.04 46.31ZM39.98 33.53C40.0193 33.5588 40.0512 33.5964 40.0732 33.6399C40.0952 33.6833 40.1067 33.7313 40.1067 33.78C40.1067 33.8287 40.0952 33.8767 40.0732 33.9201C40.0512 33.9636 40.0193 34.0012 39.98 34.03C38.7203 35.2751 37.3844 36.4408 35.98 37.5201C35.98 37.5201 35.65 37.6901 35.65 37.5201C34.49 36.1901 27.85 29.5201 27.85 29.5201C27.8107 29.4913 27.7788 29.4536 27.7568 29.4102C27.7348 29.3668 27.7233 29.3187 27.7233 29.2701C27.7233 29.2214 27.7348 29.1733 27.7568 29.1299C27.7788 29.0865 27.8107 29.0488 27.85 29.0201L31.5 25.37L31.67 25.2C31.84 25.2 31.84 25.2 31.84 25.37L39.98 33.53Z" fill="#F5F5F5"/>
</svg>
