<svg width="229" height="157" viewBox="0 0 229 157" fill="none" xmlns="http://www.w3.org/2000/svg">
<path d="M45.9555 146.929C21.5711 149.556 2.56103 133.394 25.0952 120.968C30.2673 121.365 34.2852 121.921 42.6434 122.242C58.9965 122.893 64.1592 126.618 65.4443 131.135C67.3904 137.93 61.6591 145.256 45.9555 146.929ZM14.5037 62.8778C14.5037 51.9936 21.2031 44.588 32.3493 44.588C45.0834 44.588 51.9344 54.076 51.9344 66.0085C51.9344 76.9022 46.0307 84.6552 34.6129 84.6552C21.6065 84.6552 14.5037 75.0926 14.5037 62.8778ZM67.1533 113.496C59.5315 110.002 48.1787 109.745 29.6271 108.288C20.9965 107.608 19.2774 105.087 19.2774 101.649C19.2774 99.5723 20.326 97.2381 22.5844 95.4084C24.0868 94.174 26.0376 93.2201 28.2105 92.8076C30.4487 93.0688 32.3745 93.1557 34.1442 93.1557C54.838 93.1557 66.5281 80.6891 66.5281 65.8276C66.5281 59.4502 64.1288 52.8262 59.8893 48.0371C64.4014 48.0371 72.8803 48.5663 75.5367 49.1116V38.4791C70.7728 39.8109 64.9303 40.0726 59.8893 40.0726C55.6446 40.0726 51.6722 39.2661 47.9364 38.2177C43.4351 36.8913 38.1468 35.833 33.6448 35.833C12.8399 35.833 0 48.5818 0 65.0768C0 76.4447 7.33512 86.5172 17.9568 90.4996C9.98673 94.2301 5.7368 99.5229 5.7368 105.633C5.7368 111.606 9.95626 117.808 18.1987 120.031C6.24079 125.244 -4.905 134.66 3.40265 145.619C15.6075 161.726 58.6839 160.012 72.0936 143.256C82.5949 130.123 75.4612 117.313 67.1533 113.496ZM117.102 74.3172C106.505 69.0089 96.4075 64.2092 96.4075 55.74C96.4075 48.5672 104.095 45.3705 112.076 45.3705C120.303 45.3705 127.985 48.2944 134.372 53.3459V41.3984C127.733 37.6826 120.035 35.833 112.333 35.833C98.0105 35.833 82.0851 42.9911 82.0851 59.4503C82.0851 73.0015 94.0228 78.8292 105.169 84.1368C115.257 88.9007 124.553 93.1558 124.553 101.918C124.553 110.648 115.257 112.514 107.821 112.514C100.929 112.514 90.0499 109.6 81.2941 104.836V117.035C89.7887 120.499 98.0105 122.349 107.301 122.349C122.173 122.349 139.943 116.234 139.943 98.4495C139.943 86.2496 128.268 79.9028 117.102 74.3172ZM225.734 117.288C221.222 117.288 215.016 116.119 205.201 105.496C192.452 91.4321 177.686 73.5105 177.686 73.5105L200.261 52.2775C213.519 39.8102 217.239 39.0234 218.303 38.7464H197.337C193.087 44.3223 188.308 48.567 188.308 48.567L164.161 71.1362V0L145.837 4.76922C148.236 7.96477 149.032 13.2733 149.032 25.211V98.736C149.032 113.583 148.236 115.181 146.643 119.43H166.283C164.958 115.977 164.161 113.583 164.161 98.736V77.4876C164.161 77.4876 175.05 90.4995 188.58 106.697C197.064 116.748 203.981 121.281 212.198 121.281C218.565 121.281 224.413 119.693 228.38 116.748C227.589 117.036 226.53 117.288 225.734 117.288Z" fill="#F5F5F5"/>
</svg>
