<svg width="631" height="344" viewBox="0 0 631 344" fill="none" xmlns="http://www.w3.org/2000/svg">
<path d="M435.53 200.79C439.18 198.19 443.13 195.15 446.82 192.23C475.22 169.51 496.92 144.61 501.2 130.83C501.36 130.39 501.74 129.12 501.74 128.1C501.74 126.68 501.06 125.68 499.75 125.68C486.74 125.68 444.89 167.33 434.76 201.05V201.19L435.53 200.79ZM330.65 196C370.2 166.13 411.73 122.63 416.16 104.77C416.31 104.19 416.45 103.62 416.43 103.07C416.38 101.91 415.74 100.85 414.25 100.85C401.74 100.85 343.77 154.3 330.65 196ZM87.83 222.26C77.39 215.02 61.24 208.69 46.83 208.69C32.84 208.69 23.88 214.18 23.88 221.1C23.88 229.08 34.75 232.57 46.9 232.57C61.64 232.57 75.02 228.58 87.83 222.26ZM208.98 128.55C237.33 119.45 264.22 100.45 284.28 80.61C302.83 62.24 317.67 40.43 317.67 29.64C317.67 27.17 315.9 25.69 313.67 25.69C305.09 25.69 288.79 37.1 266.89 59.02C249.82 76.14 229.94 99.48 208.98 128.55ZM631 197.09C606.66 221.32 530.78 287.91 510.7 343.96L485.83 337.55C493.95 314.34 518.43 278.25 545.72 250.38C539.92 252.58 533.85 253.39 529 253.39C521.63 253.39 515.89 251.17 512.45 246.98C509.96 243.98 508.71 240.05 508.71 235.38C508.71 234.37 508.78 233.34 508.92 232.21C484.97 246.79 465.69 253.39 446.82 253.39C432.14 253.39 419.76 246.98 414.07 235.76C390.27 247.56 367.48 253.39 348.4 253.39C330.65 253.39 316.35 246.37 309.78 233.54C285.73 247.07 265.29 253.39 249.01 253.39C239.64 253.39 232.22 250.79 227.44 245.88C223.93 242.27 222.07 237.38 221.82 231.75C206.39 241.89 183.89 253.39 160.78 253.39C137.17 253.39 121.32 245.27 109.03 237.25C89.42 248.1 67.86 253.39 45.05 253.39C27.81 253.39 0 246.2 0 221.49C0 201.53 20.82 188.03 48.66 188.03C72.35 188.03 95.17 198.01 109.49 208.36C123.09 197.54 137.35 182.4 154.17 161.01C150.47 161.2 146.86 161.31 143.31 161.31C111.08 161.31 84.18 151.82 69.49 135.19C61.57 126.21 57.82 115.67 57.82 104.34C57.82 59.52 114.41 24.75 163.92 19.64C167.2 27.06 170.14 32.77 173.14 39.57C124.22 45.25 83.49 74.21 83.49 102.5C83.49 121.09 104.4 139.77 148.76 139.77C156.36 139.77 164 139.04 171.52 137.99C210.67 83.94 270.7 0 322.33 0C337.62 0 345.59 9.28 345.59 21.72C345.59 47.28 323.63 74.8 309.31 89.15C286.8 111.76 246.11 145.4 189.26 156.54C167.14 187.29 148.96 207.7 130.79 222.43C141.82 228.38 152.13 232.01 164.46 232.01C195.05 232.01 224.73 204 247.92 180.27L248.74 179.48L266.82 193.61L265.98 194.59C255.72 206.35 246.28 218.77 246.28 225.72C246.28 231.02 250.73 232.06 254.58 232.06C266.31 232.06 284.35 224.48 305.61 211.41V211.23C307.96 158.7 379.63 78.39 423.14 78.39C435.42 78.39 442.49 84.49 442.49 95.22C442.49 121.55 397.05 178.01 330.99 221.2V221.23C334.41 228.58 342.28 232.13 355.63 232.13C366.06 232.13 386.43 227.48 410.67 214.82C413.49 187.6 428.9 158.39 448.45 137.57C468.07 116.71 490.06 103.15 509.07 103.15C520.79 103.15 527.71 109.62 527.71 119.74C527.71 142.7 501.06 181.96 436.85 223.07C439.68 228.58 445.21 232.06 453.78 232.06C472.9 232.06 506.6 211.64 532.86 186.54L551.7 201.19C543.65 210.95 535.51 221.7 535.78 227.86C535.84 229.86 537.19 231.19 540.35 231.19C559.7 231.19 590.17 205.66 613 183.12L631 197.09ZM280.81 144.41C289.35 144.41 296.25 151.36 296.25 159.87C296.25 168.43 289.35 175.36 280.81 175.36C272.24 175.36 265.32 168.43 265.32 159.87C265.32 151.36 272.24 144.41 280.81 144.41Z" fill="#F5F5F5"/>
</svg>
