<svg width="381" height="55" viewBox="0 0 381 55" fill="none" xmlns="http://www.w3.org/2000/svg">
<path d="M290.752 6.2359L286.421 6.2364V22.4444H290.752C295.669 22.4444 299.643 18.466 299.643 13.5569C299.643 8.6478 295.145 6.2359 290.752 6.2359ZM319.303 40.1849V40.6308C319.303 40.4835 319.311 40.3361 319.303 40.1849ZM319.303 40.6347V54.1757H299.628V41.0697C299.636 40.9262 299.643 40.7828 299.643 40.6354C299.643 35.7263 295.661 31.7479 290.752 31.7479H286.421V54.1759H266.079V0.0169067H305.763C313.239 0.0169067 319.304 6.07759 319.304 13.5539C319.304 21.0302 313.243 27.0909 305.763 27.0909C313.095 27.0909 319.071 32.9151 319.304 40.1859C319.312 40.3371 319.304 40.4845 319.304 40.6357L319.303 40.6347ZM380.011 31.5613H346.819V45.2883H380.011V54.1796H326.81V0.00160217H380.011V8.8929H346.819V22.6699H380.011V31.5613ZM225.901 22.67H259.07V31.5613H225.901V54.1793H205.896V0.001297H259.07V8.89259H225.901V22.67ZM170.407 6.226L166.068 6.2263V22.4383H170.407C175.432 22.4383 179.298 18.4599 179.298 13.5508C179.298 8.6379 174.917 6.226 170.407 6.226ZM183.168 0.0218048C191.889 0.0218048 198.962 7.0907 198.962 15.8118C198.962 24.5329 191.889 31.6018 183.168 31.6018H165.73V54.1698H145.729V0.0227966L183.168 0.0218048ZM106.12 8.116L97.9964 36.396H114.243L106.12 8.116ZM72.889 54.178L88.446 0H123.794L139.355 54.178H119.35L116.799 45.2866H95.4485L92.8931 54.178H72.889ZM0 54.179V0.0019989H20.005L33.231 27.087L46.457 0.0019989L66.462 0.0059967V54.18H46.457V27.087L33.231 54.18L20.005 27.087V54.18L0 54.179Z" fill="#F5F5F5"/>
</svg>
