<svg width="357" height="67" viewBox="0 0 357 67" fill="none" xmlns="http://www.w3.org/2000/svg">
<path d="M169.48 30.39C162.2 30.39 158.49 29.0699 158.49 21.9799V8.74C158.49 2.12 161.8 0 168.49 0H197.29V4.9H166.51C165.12 4.9 163.73 6.09 163.73 7.48V22.71C163.73 24.1 165.12 25.49 166.51 25.49H194.12V17.2799H178.1V12.38H199.35V30.39H169.49H169.48ZM30.9199 0H0.0098877V30.39H5.36989V20.99H30.9199C37.0799 20.99 40.5199 18.74 40.5199 12.38V8.94C40.5199 2.72 37.0799 0 30.9199 0ZM35.2899 13.64C35.2899 14.96 33.8999 16.0899 32.5099 16.0899H5.36989V4.9H32.5099C33.8999 4.9 35.2899 6.09 35.2899 7.48V13.64ZM91.0899 4.9V0H52.4499V30.39H91.0899V25.49H57.6799V17.2799H87.3999V12.38H57.6799V4.9H91.0899ZM251.06 4.9V0H212.41V30.39H251.06V25.49H217.64V17.2799H247.37V12.38H217.64V4.9H251.06ZM115.2 30.39C108.38 30.39 104.21 28.8699 104.21 21.9799V0H109.44V22.91C109.44 24.3 110.63 25.49 112.22 25.49H137.38C138.97 25.49 140.03 24.3 140.03 22.91V0H145.39V21.9799C145.39 28.9299 141.75 30.39 134.4 30.39H115.2ZM272.19 4.9C270.6 4.9 269.41 6.09 269.41 7.68V22.71C269.41 24.1 270.6 25.49 272.19 25.49H298.21C299.6 25.49 300.99 24.1 300.99 22.71V7.68C300.99 6.09 299.6 4.9 298.21 4.9H272.19ZM275.17 30.39C267.89 30.39 264.18 29.1999 264.18 21.9799V8.41C264.18 1.59 267.56 0 275.17 0H295.23C301.85 0 306.22 1.46 306.22 8.41V21.9799C306.22 28.7999 302.45 30.39 295.23 30.39H275.17ZM356.64 0H315.93V4.9H333.67V30.39H339.03V4.9H356.64V0Z" fill="#F5F5F5"/>
<path d="M35.05 45.51V66.76H31.25V49.77L19.54 62.59H15.28L3.79999 50V66.76H0V45.51H4.48999L17.36 60L30.55 45.51H35.04H35.05ZM43.38 60.88V51.39C43.38 46.95 45.23 45.51 49.31 45.51H67.13C71.44 45.51 72.96 46.95 72.96 51.39V60.88C72.96 65.74 70.41 66.76 67.13 66.76H49.31C45.88 66.76 43.38 65.7 43.38 60.88ZM67.32 63.28C68.43 63.28 69.17 62.63 69.17 61.47V50.87C69.17 49.9 68.66 48.97 67.32 48.97H49.13C47.6 48.97 47.19 49.9 47.19 50.87V61.47C47.19 62.63 48.02 63.28 49.13 63.28H67.32ZM106.53 48.9799H94.22V66.76H90.42V48.9799H78.06V45.51H106.53V48.9799ZM111.62 60.88V51.39C111.62 46.95 113.47 45.51 117.55 45.51H135.37C139.68 45.51 141.2 46.95 141.2 51.39V60.88C141.2 65.74 138.65 66.76 135.37 66.76H117.55C114.12 66.76 111.62 65.7 111.62 60.88ZM135.55 63.28C136.66 63.28 137.4 62.63 137.4 61.47V50.87C137.4 49.9 136.89 48.97 135.55 48.97H117.36C115.83 48.97 115.42 49.9 115.42 50.87V61.47C115.42 62.63 116.25 63.28 117.36 63.28H135.55ZM148.6 51.39C148.6 46.58 151.52 45.51 156.38 45.51H175.5V48.9799H154.34C153.23 48.9799 152.4 49.81 152.4 50.79V61.48C152.4 62.45 153.23 63.29 154.34 63.29H175.73V66.76H156.38C151.52 66.76 148.6 65.7 148.6 60.88V51.39ZM208.09 45.51L195.64 59.3V66.75H191.84V59.3L179.43 45.51H183.97L193.83 56.43L203.46 45.51H208.09ZM213.18 51.39C213.18 46.58 216.1 45.51 220.96 45.51H240.08V48.9799H218.92C217.81 48.9799 216.98 49.81 216.98 50.79V61.48C216.98 62.45 217.81 63.29 218.92 63.29H240.31V66.76H220.96C216.1 66.76 213.18 65.7 213.18 60.88V51.39ZM251.05 45.51V63.29H270.82V66.76H247.26V45.51H251.06H251.05ZM305.02 63.28V66.75H277.75V45.5H304.78V48.97H281.54V54.15H302.33V57.62H281.54V63.27H305.01L305.02 63.28ZM311.04 63.28H334.88C336.27 63.28 336.82 62.77 336.82 61.57V59.72C336.82 58.38 336.26 57.87 334.88 57.87H315.44C311.97 57.87 310.58 56.43 310.58 52.7799V50.8399C310.58 47.0399 312.11 45.52 315.9 45.52H338.63V48.99H315.99C314.6 48.99 314.05 49.5 314.05 50.8V52.6999C314.05 53.8999 314.61 54.41 315.99 54.41H333.58C338.39 54.41 340.29 55.9799 340.29 59.7799V61.68C340.29 65.34 338.67 66.77 334.6 66.77H311.04V63.3V63.28Z" fill="#F5F5F5"/>
</svg>
