<svg width="1042" height="250" viewBox="0 0 1042 250" fill="none" xmlns="http://www.w3.org/2000/svg">
<path d="M74.6 37.3C74.6 16.7 57.9 0 37.3 0C16.7 0 0 16.7 0 37.3C0 57.9 16.7 74.6 37.3 74.6C57.9 74.6 74.6 57.9 74.6 37.3Z" fill="#F5F5F5"/>
<path d="M162.3 37.3C162.3 16.7 145.6 0 125 0C104.4 0 87.7 16.7 87.7 37.3C87.7 57.9 104.4 74.6 125 74.6C145.6 74.6 162.3 57.9 162.3 37.3Z" fill="#F5F5F5"/>
<path d="M250 37.3C250 16.7 233.3 0 212.7 0C192.1 0 175.4 16.7 175.4 37.3C175.4 57.9 192.1 74.6 212.7 74.6C233.3 74.6 250 57.9 250 37.3Z" fill="#F5F5F5"/>
<path d="M162.3 125C162.3 104.4 145.6 87.7 125 87.7C104.4 87.7 87.7 104.4 87.7 125C87.7 145.6 104.4 162.3 125 162.3C145.6 162.3 162.3 145.6 162.3 125Z" fill="#F5F5F5"/>
<path d="M162.3 212.7C162.3 192.1 145.6 175.4 125 175.4C104.4 175.4 87.7 192.1 87.7 212.7C87.7 233.3 104.4 250 125 250C145.6 250 162.3 233.3 162.3 212.7Z" fill="#F5F5F5"/>
<path d="M329.5 95.9H294.8V75.2H385.8V95.9H351V191.1H329.5V95.9Z" fill="#F5F5F5"/>
<path d="M440.3 141.5C438.5 130.7 431.4 122.5 419.6 122.5C407 122.5 399.7 130.8 397.2 141.5H440.3ZM458.5 166.3C456.7 172.9 446.2 192.8 419.6 192.8C394.8 192.8 376.6 174.6 376.6 148.9C376.6 123.2 394.8 105 419.6 105C442.8 105 461 123.2 461 147.2C461 149.7 460.7 151.7 460.5 153.2L460.2 155.5H397.3C399.1 167.3 407.9 175.4 419.7 175.4C429.5 175.4 435.4 169.8 437.1 166.3H458.5Z" fill="#F5F5F5"/>
<path d="M494.1 75.2H473.4V191.1H494.1V75.2Z" fill="#F5F5F5"/>
<path d="M570.2 141.5C568.4 130.7 561.3 122.5 549.5 122.5C536.9 122.5 529.6 130.8 527.1 141.5H570.2ZM588.5 166.3C586.7 172.9 576.2 192.8 549.6 192.8C524.8 192.8 506.6 174.6 506.6 148.9C506.6 123.2 524.8 105 549.6 105C572.8 105 591 123.2 591 147.2C591 149.7 590.7 151.7 590.5 153.2L590.2 155.5H527.3C529.1 167.3 537.9 175.4 549.7 175.4C559.5 175.4 565.4 169.8 567.1 166.3H588.5Z" fill="#F5F5F5"/>
<path d="M610 126.6H595.9V106.7H610V94.3C610 81.7 618.1 73.6 630.7 73.6H648.9V91.8H636.5C633.2 91.8 630.7 94.3 630.7 97.6V106.7H648.9V126.6H630.7V191.2H610V126.6Z" fill="#F5F5F5"/>
<path d="M750.5 106.7H769.5L771.2 115H772C773.5 113.2 775.5 111.5 777.6 110C781.4 107.5 787.2 105 795.2 105C814.2 105 828.3 119.1 828.3 140.6V191.1H807.6V142.3C807.6 131.5 800.1 124.1 789.4 124.1C778.6 124.1 771.2 131.6 771.2 142.3V191.1H750.5V106.7Z" fill="#F5F5F5"/>
<path d="M960.1 159.7C957.4 172.9 947 192.8 920.4 192.8C895.6 192.8 877.4 174.6 877.4 148.9C877.4 123.2 895.6 105 920.4 105C947.1 105 957.5 124.9 960.1 137.3H939.4C937.6 132.5 932.8 124.1 920.4 124.1C908 124.1 898 134 898 148.9C898 163.8 907.9 173.7 920.4 173.7C932.9 173.7 937.6 165.4 939.4 159.6H960.1V159.7Z" fill="#F5F5F5"/>
<path d="M1021 154.7H1003.6C992.8 154.7 987.9 158.8 987.9 165.5C987.9 172.1 992.7 176.3 1001.1 176.3C1013.7 176.3 1021 169 1021 157.3V154.7ZM1022.6 182.9H1021.8C1020.3 184.7 1018.3 186.4 1016 187.9C1012 190.4 1006.2 192.9 997.8 192.9C978.6 192.9 967.2 181.1 967.2 167.2C967.2 150.6 978.8 139 1002 139H1021V137.3C1021 128 1015.4 121.6 1006.1 121.6C996.8 121.6 992 127.6 991.2 132.4H970.5C972.3 118.5 983.6 105.1 1006.1 105.1C1027.6 105.1 1041.7 119.3 1041.7 137.4V191.2H1024.3L1022.6 182.9Z" fill="#F5F5F5"/>
<path d="M844.2 106.7H864.9V191.1H844.2V106.7ZM866.8 82.3C866.8 75.5 861.3 70 854.5 70C847.7 70 842.2 75.5 842.2 82.3C842.2 89.1 847.7 94.6 854.5 94.6C861.3 94.5 866.8 89.1 866.8 82.3Z" fill="#F5F5F5"/>
<path d="M717.4 148.9C717.4 134 707.5 124.1 695 124.1C682.6 124.1 672.6 134 672.6 148.9C672.6 163.8 682.5 173.7 695 173.7C707.5 173.7 717.4 163.8 717.4 148.9ZM738.1 148.9C738.1 174.6 719.9 192.8 695 192.8C670.2 192.8 652 174.6 652 148.9C652 123.2 670.2 105 695 105C719.9 105 738.1 123.2 738.1 148.9ZM702.5 71.1H724L704.1 95.1H686.7L702.5 71.1Z" fill="#F5F5F5"/>
</svg>
