<svg width="274" height="44" viewBox="0 0 274 44" fill="none" xmlns="http://www.w3.org/2000/svg">
<path d="M259.456 43.7127C253.322 43.7127 249.809 40.3181 249.809 35.4347C249.809 30.1939 253.858 26.8589 260.528 26.3229L270.355 25.5487V24.4767C270.355 18.0449 266.543 16.1987 262.017 16.1987C256.717 16.1987 253.561 18.7 253.561 22.8688H250.821C250.821 17.2707 255.347 13.6974 262.077 13.6974C268.211 13.6974 273.094 16.6752 273.094 24.0599V42.9981H270.891L270.355 37.6382C268.389 41.5092 264.399 43.7127 259.456 43.7127ZM259.814 41.271C266.543 41.271 270.355 36.3876 270.355 29.3602V27.8118L260.767 28.586C254.99 29.0624 252.548 31.8615 252.548 35.3751C252.548 39.3057 255.526 41.271 259.814 41.271Z" fill="#E7E7E7"/>
<path d="M242.112 5.65764C240.742 5.65764 239.61 4.52611 239.61 3.21592C239.61 1.84618 240.742 0.655098 242.112 0.655098C243.422 0.655098 244.613 1.84618 244.613 3.21592C244.613 4.52611 243.422 5.65764 242.112 5.65764ZM240.742 42.9981V14.4121H243.481V42.9981H240.742Z" fill="#E7E7E7"/>
<path d="M219.044 43.7127C210.647 43.7127 205.883 37.1618 205.883 28.7051C205.883 20.2484 210.647 13.6974 219.044 13.6974C224.106 13.6974 228.037 15.9605 230.121 20.6057V0H232.861V42.9981H230.657L230.24 36.5662C228.096 41.4497 223.987 43.7127 219.044 43.7127ZM219.342 41.2115C226.191 41.2115 230.062 35.9707 230.062 28.7051C230.062 21.499 226.191 16.1987 219.342 16.1987C212.553 16.1987 208.682 21.499 208.682 28.7051C208.682 35.9707 212.553 41.2115 219.342 41.2115Z" fill="#E7E7E7"/>
<path d="M190.123 43.7127C181.845 43.7127 176.366 37.7573 176.366 28.7646C176.366 19.8315 181.786 13.6974 189.766 13.6974C197.21 13.6974 202.332 19.0573 202.332 26.8589V28.7646H179.106C179.344 36.5662 183.394 41.2115 190.123 41.2115C195.185 41.2115 198.401 39.008 199.533 34.7796H202.332C200.664 40.6755 196.555 43.7127 190.123 43.7127ZM189.766 16.1987C183.93 16.1987 179.82 20.2484 179.165 26.5016H199.533C199.533 20.308 195.662 16.1987 189.766 16.1987Z" fill="#E7E7E7"/>
<path d="M133.413 42.9981H130.674V14.4121H132.877L133.294 18.8191C134.783 15.5436 138.059 13.6974 142.049 13.6974C146.634 13.6974 150.148 16.1987 151.399 20.1293C152.649 16.1987 156.103 13.6974 160.868 13.6974C166.764 13.6974 170.992 17.628 170.992 24.2981V42.9981H168.372V24.6554C168.372 19.4146 165.394 16.1987 160.63 16.1987C155.21 16.1987 152.232 20.4271 152.232 24.715V42.9981H149.552V24.5959C149.552 19.3551 146.575 16.1987 141.81 16.1987C136.391 16.1987 133.413 20.3675 133.413 24.6554V42.9981Z" fill="#E7E7E7"/>
<path d="M107.566 42.9981H104.827V0H107.566V30.4322L123.11 14.4121H126.624L115.547 25.8465L126.743 42.9981H123.586L113.7 27.6927L107.566 34.065V42.9981Z" fill="#E7E7E7"/>
<path d="M95.3433 5.65764C93.9736 5.65764 92.8421 4.52611 92.8421 3.21592C92.8421 1.84618 93.9736 0.655098 95.3433 0.655098C96.6535 0.655098 97.8446 1.84618 97.8446 3.21592C97.8446 4.52611 96.6535 5.65764 95.3433 5.65764ZM93.9736 42.9981V14.4121H96.7131V42.9981H93.9736Z" fill="#E7E7E7"/>
<path d="M85.871 42.9981H83.1315V0H85.871V42.9981Z" fill="#E7E7E7"/>
<path d="M51.7563 28.8242C51.7563 19.772 57.1161 13.6974 65.3346 13.6974C71.4687 13.6974 76.0543 17.3302 77.3645 22.7497H74.5655C73.3744 18.5213 69.5629 16.1392 65.3346 16.1392C58.9623 16.1392 54.4362 21.0226 54.4362 28.7646C54.4362 36.1494 58.605 41.2115 64.9773 41.2115C69.5629 41.2115 73.3744 38.5911 74.6846 34.7201H77.4836C75.9352 40.1395 71.0518 43.7127 64.9773 43.7127C57.1161 43.7127 51.7563 37.7573 51.7563 28.8242Z" fill="#E7E7E7"/>
<path d="M44.6549 5.65764C43.2852 5.65764 42.1536 4.52611 42.1536 3.21592C42.1536 1.84618 43.2852 0.655098 44.6549 0.655098C45.9651 0.655098 47.1562 1.84618 47.1562 3.21592C47.1562 4.52611 45.9651 5.65764 44.6549 5.65764ZM43.2852 42.9981V14.4121H46.0246V42.9981H43.2852Z" fill="#E7E7E7"/>
<path d="M19.5933 43.6532C8.03981 43.6532 0 34.7201 0 21.8564C0 8.93312 8.09936 0 19.8315 0C28.4669 0 35.4943 5.35987 37.3404 13.3997H34.1841C32.2783 6.84873 26.6802 2.73949 19.6529 2.73949C9.70732 2.73949 2.91815 10.4815 2.91815 21.8564C2.91815 33.2312 9.70732 40.9137 19.6529 40.9137C26.6802 40.9137 32.457 36.9831 34.4223 30.9086H37.5787C35.5538 38.5315 28.2882 43.6532 19.5933 43.6532Z" fill="#E7E7E7"/>
</svg>
