<svg width="32" height="33" viewBox="0 0 32 33" fill="none" xmlns="http://www.w3.org/2000/svg">
<path d="M3.24625 7.6843C8.94161 -0.425148 20.1547 -2.45549 28.2969 3.22626L26.5284 5.76534C19.7754 1.06672 10.4833 2.72821 5.76772 9.46165C1.04915 16.1893 2.71746 25.4549 9.47278 30.1561L7.71791 32.6503L7.339 32.3808C-0.386313 26.7303 -2.30531 16.0162 2.98453 8.06613L3.24625 7.6843Z" fill="#E7E7E7"/>
<path d="M20.7567 11.4273C24.5239 12.7725 26.518 16.9789 25.1376 20.7603C23.7907 24.5239 19.5802 26.5159 15.7812 25.1383L16.6396 22.7564C19.1164 23.688 21.8786 22.3869 22.7597 19.9068C23.6869 17.44 22.3837 14.6778 19.8974 13.8092L20.7567 11.4273Z" fill="#E7E7E7"/>
<path d="M7.61856 11.3709C11.3807 5.41655 19.2021 3.65004 25.1195 7.43337L25.394 7.61305C31.0936 11.4613 32.739 19.1714 29.0414 25.031L26.4926 23.407C29.3638 18.8753 28.0195 12.8806 23.5072 9.98903C18.998 7.10177 13.0347 8.45916 10.1635 12.989L7.61856 11.3709Z" fill="#E7E7E7"/>
</svg>
