<svg width="982" height="1015" viewBox="0 0 982 1015" fill="none" xmlns="http://www.w3.org/2000/svg">
<g filter="url(#filter0_f_0_11)">
<path d="M749.456 98.3796C507.677 -3.78868 228.877 110.352 126.174 351.355C23.3505 592.463 136.7 870.85 379.021 972.366L410.695 898.237C210.169 813.801 116.119 583.367 201.158 383.463C286.09 183.423 517.236 89.3871 717.687 173.776L749.456 98.3796Z" fill="#BDBDBD"/>
<path d="M126.174 351.355C228.877 110.352 507.677 -3.78868 749.456 98.3795L717.687 173.776C517.235 89.3871 286.09 183.424 201.158 383.463L200.17 385.807C116.855 585.165 210.953 814.131 410.694 898.237L379.021 972.366C136.7 870.85 23.351 592.463 126.174 351.355Z" fill="#BDBDBD"/>
<path d="M590.425 418.216C659.495 427.012 708.373 491.282 697.951 560.17C688.799 629.144 624.523 677.981 555.355 667.505L546.252 733.811C652.063 748.553 749.999 673.896 764.142 569.172C779.056 463.799 704.368 365.984 599.558 351.904L590.425 418.216Z" fill="#BDBDBD"/>
<path d="M599.558 351.904C704.367 365.984 779.056 463.799 764.142 569.172C749.999 673.896 652.063 748.553 546.252 733.811L555.355 667.505C624.523 677.981 688.798 629.144 697.951 560.17C708.373 491.283 659.495 427.012 590.425 418.217L599.558 351.904Z" fill="#BDBDBD"/>
<path d="M888.57 658.156C952.984 483.582 864.304 289.935 690.413 224.644C516.599 159.336 324.062 248.017 259.506 422.668L334.218 450.508C383.567 317.587 530.301 249.724 662.776 299.605C795.35 349.576 863.069 497.201 813.73 630.167L888.57 658.156Z" fill="#BDBDBD"/>
<path d="M259.506 422.668C324.062 248.016 516.599 159.337 690.413 224.644C864.303 289.935 952.984 483.582 888.57 658.155L813.73 630.167C863.069 497.201 795.351 349.576 662.777 299.605C530.302 249.724 383.566 317.587 334.218 450.508L259.506 422.668Z" fill="#BDBDBD"/>
</g>
<defs>
<filter id="filter0_f_0_11" x="76.226" y="48.9131" width="845.352" height="935.453" filterUnits="userSpaceOnUse" color-interpolation-filters="sRGB">
<feFlood flood-opacity="0" result="BackgroundImageFix"/>
<feBlend mode="normal" in="SourceGraphic" in2="BackgroundImageFix" result="shape"/>
<feGaussianBlur stdDeviation="6" result="effect1_foregroundBlur_0_11"/>
</filter>
</defs>
</svg>
