<svg width="1006" height="1040" viewBox="0 0 1006 1040" fill="none" xmlns="http://www.w3.org/2000/svg">
<g opacity="0.5">
<g filter="url(#filter0_f_0_3)">
<path d="M767.735 100.779C520.059 -3.88108 234.459 113.044 129.251 359.925C23.92 606.913 140.034 892.089 388.265 996.082L420.711 920.145C215.295 833.649 118.951 597.595 206.065 392.815C293.068 187.897 529.851 91.5672 735.191 178.014L767.735 100.779Z" fill="#141414" fill-opacity="0.05"/>
<path d="M129.251 359.924C234.459 113.044 520.059 -3.88091 767.734 100.779L735.192 178.014L732.784 177.009C528.003 92.3214 292.728 188.698 206.065 392.815L205.052 395.216C119.705 599.437 216.097 833.987 420.711 920.145L388.265 996.081L385.362 994.854C139.13 889.862 24.3315 605.948 129.251 359.924Z" fill="#1F1F1F" fill-opacity="0.05"/>
<path d="M604.825 428.417C675.58 437.427 725.65 503.265 714.974 573.832C705.598 644.488 639.755 694.517 568.9 683.785L559.575 751.708C667.967 766.81 768.291 690.332 782.779 583.054C798.057 475.111 721.547 374.91 614.181 360.487L604.825 428.417Z" fill="#141414" fill-opacity="0.05"/>
<path d="M614.181 360.487C721.547 374.91 798.057 475.111 782.779 583.055C768.292 690.332 667.967 766.81 559.575 751.708L568.9 683.785C639.755 694.517 705.598 644.488 714.974 573.832C725.65 503.265 675.58 437.426 604.826 428.416L614.181 360.487Z" fill="#1F1F1F" fill-opacity="0.05"/>
<path d="M910.242 674.208C976.227 495.377 885.384 297.006 707.252 230.123C529.198 163.223 331.966 254.066 265.835 432.977L342.37 461.495C392.922 325.333 543.235 255.815 678.941 306.912C814.749 358.102 884.119 509.328 833.577 645.537L910.242 674.208Z" fill="#141414" fill-opacity="0.05"/>
<path d="M265.835 432.977C331.966 254.066 529.198 163.223 707.252 230.123C885.383 297.006 976.227 495.377 910.242 674.208L833.577 645.537C884.119 509.327 814.749 358.103 678.941 306.912C543.235 255.815 392.922 325.333 342.369 461.495L265.835 432.977Z" fill="#1F1F1F" fill-opacity="0.05"/>
</g>
<g filter="url(#filter1_f_0_3)">
<path d="M761.425 110.755C519.646 8.58643 240.846 122.727 138.143 363.73C35.3202 604.838 148.67 883.225 390.991 984.741L422.664 910.612C222.139 826.176 128.089 595.742 213.128 395.838C298.06 195.798 529.205 101.762 729.657 186.151L761.425 110.755Z" fill="#BDBDBD" fill-opacity="0.1"/>
<path d="M138.144 363.731C240.847 122.727 519.646 8.58642 761.425 110.755L729.657 186.151C529.205 101.762 298.06 195.799 213.128 395.838L212.14 398.182C128.825 597.54 222.922 826.506 422.664 910.612L390.991 984.741C148.669 883.225 35.3207 604.838 138.144 363.731Z" fill="#BDBDBD" fill-opacity="0.1"/>
<path d="M602.395 430.592C671.465 439.387 720.343 503.658 709.921 572.545C700.768 641.519 636.492 690.356 567.325 679.88L558.222 746.186C664.033 760.928 761.969 686.271 776.111 581.547C791.026 476.174 716.337 378.359 611.528 364.279L602.395 430.592Z" fill="#BDBDBD" fill-opacity="0.1"/>
<path d="M611.528 364.279C716.337 378.359 791.026 476.174 776.112 581.547C761.969 686.271 664.033 760.928 558.222 746.186L567.325 679.88C636.492 690.356 700.768 641.519 709.92 572.545C720.342 503.658 671.465 439.387 602.395 430.592L611.528 364.279Z" fill="#BDBDBD" fill-opacity="0.1"/>
<path d="M900.54 670.531C964.954 495.957 876.273 302.31 702.383 237.019C528.568 171.712 336.032 260.392 271.476 435.044L346.188 462.883C395.536 329.962 542.271 262.1 674.746 311.98C807.32 361.951 875.039 509.576 825.7 642.543L900.54 670.531Z" fill="#BDBDBD" fill-opacity="0.1"/>
<path d="M271.476 435.043C336.032 260.392 528.568 171.712 702.383 237.019C876.273 302.31 964.954 495.957 900.54 670.53L825.7 642.542C875.038 509.576 807.32 361.952 674.747 311.98C542.272 262.1 395.536 329.962 346.187 462.883L271.476 435.043Z" fill="#BDBDBD" fill-opacity="0.1"/>
</g>
</g>
<defs>
<filter id="filter0_f_0_3" x="59.6461" y="31.6671" width="902.847" height="995.146" filterUnits="userSpaceOnUse" color-interpolation-filters="sRGB">
<feFlood flood-opacity="0" result="BackgroundImageFix"/>
<feBlend mode="normal" in="SourceGraphic" in2="BackgroundImageFix" result="shape"/>
<feGaussianBlur stdDeviation="15.3658" result="effect1_foregroundBlur_0_3"/>
</filter>
<filter id="filter1_f_0_3" x="88.1958" y="61.2882" width="845.352" height="935.453" filterUnits="userSpaceOnUse" color-interpolation-filters="sRGB">
<feFlood flood-opacity="0" result="BackgroundImageFix"/>
<feBlend mode="normal" in="SourceGraphic" in2="BackgroundImageFix" result="shape"/>
<feGaussianBlur stdDeviation="6" result="effect1_foregroundBlur_0_3"/>
</filter>
</defs>
</svg>
