<svg width="1006" height="1040" viewBox="0 0 1006 1040" fill="none" xmlns="http://www.w3.org/2000/svg">
<g filter="url(#filter0_f_1_2)">
<path d="M163.144 374.368C255.604 157.402 498.64 49.098 718.913 121.764L714.951 131.167C499.48 60.7574 262.253 166.237 172.163 378.393C81.8937 590.591 172.041 833.394 372.882 938.317L369.336 946.618C162.936 839.973 70.6749 591.197 163.14 374.377L163.144 374.368Z" fill="#FF57DB" stroke="#FF57DB" stroke-width="73.6842"/>
<mask id="path-2-inside-1_1_2" fill="white">
<path d="M604.825 428.417C675.58 437.427 725.65 503.265 714.974 573.832C705.598 644.488 639.755 694.517 568.9 683.785L559.575 751.708C667.967 766.81 768.291 690.332 782.779 583.054C798.057 475.111 721.547 374.91 614.181 360.487L604.825 428.417Z"/>
</mask>
<path d="M604.825 428.417C675.58 437.427 725.65 503.265 714.974 573.832C705.598 644.488 639.755 694.517 568.9 683.785L559.575 751.708C667.967 766.81 768.291 690.332 782.779 583.054C798.057 475.111 721.547 374.91 614.181 360.487L604.825 428.417Z" fill="#FF57DB"/>
<path d="M604.825 428.417L531.83 418.363L521.673 492.107L595.517 501.511L604.825 428.417ZM714.974 573.832L642.119 562.81L642.018 563.474L641.93 564.139L714.974 573.832ZM568.9 683.785L579.934 610.932L506.062 599.743L495.9 673.763L568.9 683.785ZM559.575 751.708L486.576 741.687L476.574 814.54L549.408 824.688L559.575 751.708ZM782.779 583.054L709.822 572.728L709.789 572.96L709.758 573.193L782.779 583.054ZM614.181 360.487L623.992 287.458L551.207 277.681L541.186 350.433L614.181 360.487ZM604.825 428.417L595.517 501.511C625.493 505.328 646.567 533.41 642.119 562.81L714.974 573.832L787.829 584.854C804.733 473.12 725.667 369.526 614.133 355.323L604.825 428.417ZM714.974 573.832L641.93 564.139C637.933 594.258 609.701 615.44 579.934 610.932L568.9 683.785L557.866 756.638C669.808 773.593 773.263 694.718 788.018 583.525L714.974 573.832ZM568.9 683.785L495.9 673.763L486.576 741.687L559.575 751.708L632.575 761.73L641.899 693.806L568.9 683.785ZM559.575 751.708L549.408 824.688C698.133 845.408 835.838 740.733 855.8 592.916L782.779 583.054L709.758 573.193C700.745 639.931 637.801 688.211 569.743 678.729L559.575 751.708ZM782.779 583.054L855.736 593.38C876.768 444.783 771.731 307.305 623.992 287.458L614.181 360.487L604.371 433.515C671.362 442.514 719.346 505.439 709.822 572.728L782.779 583.054ZM614.181 360.487L541.186 350.433L531.83 418.363L604.825 428.417L677.82 438.47L687.176 370.54L614.181 360.487Z" fill="#FF57DB" mask="url(#path-2-inside-1_1_2)"/>
<path d="M315.145 412.035C385.093 274.786 547.099 209.305 694.294 264.61L694.302 264.614C841.753 319.978 922.287 476.197 886.436 625.971L878.814 623.12C913.43 477.802 835.002 326.364 691.936 272.438L691.924 272.433L690.106 271.755C547.246 219 390.906 282.951 322.761 414.873L315.145 412.035Z" fill="#FF57DB" stroke="#FF57DB" stroke-width="73.6842"/>
</g>
<g filter="url(#filter1_f_1_2)">
<path d="M171.259 376.455C261.518 164.654 498.768 58.9287 713.796 129.865L709.928 139.045C499.588 70.3115 268.009 173.279 180.064 380.384C91.9436 587.53 179.945 824.551 376.004 926.977L372.542 935.08C171.056 830.974 80.9923 588.121 171.256 376.463L171.259 376.455Z" fill="#FF57DB" stroke="#FF57DB" stroke-width="71.9298"/>
<mask id="path-6-inside-2_1_2" fill="white">
<path d="M602.425 429.216C671.495 438.012 720.373 502.282 709.951 571.17C700.799 640.144 636.523 688.981 567.355 678.505L558.252 744.811C664.063 759.553 761.999 684.896 776.142 580.172C791.056 474.799 716.368 376.984 611.558 362.904L602.425 429.216Z"/>
</mask>
<path d="M602.425 429.216C671.495 438.012 720.373 502.282 709.951 571.17C700.799 640.144 636.523 688.981 567.355 678.505L558.252 744.811C664.063 759.553 761.999 684.896 776.142 580.172C791.056 474.799 716.368 376.984 611.558 362.904L602.425 429.216Z" fill="#FF57DB"/>
<path d="M602.425 429.216L531.168 419.402L521.253 491.39L593.339 500.57L602.425 429.216ZM709.951 571.17L638.831 560.41L638.733 561.058L638.646 561.708L709.951 571.17ZM567.355 678.505L578.127 607.386L506.013 596.464L496.094 668.722L567.355 678.505ZM558.252 744.811L486.991 735.028L477.228 806.147L548.327 816.053L558.252 744.811ZM776.142 580.172L704.922 570.092L704.89 570.319L704.859 570.546L776.142 580.172ZM611.558 362.904L621.135 291.614L550.083 282.069L540.301 353.089L611.558 362.904ZM602.425 429.216L593.339 500.57C622.601 504.296 643.173 531.71 638.831 560.41L709.951 571.17L781.072 581.929C797.573 472.855 720.39 371.728 611.511 357.863L602.425 429.216ZM709.951 571.17L638.646 561.708C634.745 591.11 607.185 611.787 578.127 607.386L567.355 678.505L556.583 749.623C665.861 766.175 766.852 689.178 781.256 580.632L709.951 571.17ZM567.355 678.505L496.094 668.722L486.991 735.028L558.252 744.811L629.514 754.594L638.616 688.288L567.355 678.505ZM558.252 744.811L548.327 816.053C693.511 836.28 827.937 734.097 847.424 589.799L776.142 580.172L704.859 570.546C696.061 635.695 634.616 682.825 568.178 673.569L558.252 744.811ZM776.142 580.172L847.362 590.253C867.893 445.193 765.357 310.989 621.135 291.614L611.558 362.904L601.982 434.193C667.378 442.978 714.219 504.405 704.922 570.092L776.142 580.172ZM611.558 362.904L540.301 353.089L531.168 419.402L602.425 429.216L673.682 439.031L682.816 372.718L611.558 362.904Z" fill="#FF57DB" mask="url(#path-6-inside-2_1_2)"/>
<path d="M319.642 413.224C387.924 279.244 546.073 215.322 689.763 269.31L689.771 269.314C833.711 323.359 912.328 475.859 877.331 622.066L869.891 619.284C903.682 477.426 827.122 329.594 687.461 276.951L687.449 276.947C547.513 224.257 393.881 286.668 327.077 415.995L319.642 413.224Z" fill="#FF57DB" stroke="#FF57DB" stroke-width="71.9298"/>
</g>
<defs>
<filter id="filter0_f_1_2" x="59.6461" y="31.6671" width="902.847" height="995.146" filterUnits="userSpaceOnUse" color-interpolation-filters="sRGB">
<feFlood flood-opacity="0" result="BackgroundImageFix"/>
<feBlend mode="normal" in="SourceGraphic" in2="BackgroundImageFix" result="shape"/>
<feGaussianBlur stdDeviation="15.3658" result="effect1_foregroundBlur_1_2"/>
</filter>
<filter id="filter1_f_1_2" x="88.226" y="59.9131" width="845.352" height="935.453" filterUnits="userSpaceOnUse" color-interpolation-filters="sRGB">
<feFlood flood-opacity="0" result="BackgroundImageFix"/>
<feBlend mode="normal" in="SourceGraphic" in2="BackgroundImageFix" result="shape"/>
<feGaussianBlur stdDeviation="6" result="effect1_foregroundBlur_1_2"/>
</filter>
</defs>
</svg>
